<?xml version="1.0" encoding="UTF-8"?>
<svg version="1.1" xmlns="http://www.w3.org/2000/svg" width="1366" height="599">
<path d="M0 0 C450.78 0 901.56 0 1366 0 C1366 197.67 1366 395.34 1366 599 C915.22 599 464.44 599 0 599 C0 401.33 0 203.66 0 0 Z " fill="#F5F5F5" transform="translate(0,0)"/>
<path d="M0 0 C0.66 1.32 1.32 2.64 2 4 C5.32539553 5.43798533 8.96827956 5.12534754 12.54055786 5.12584114 C13.19906384 5.12729458 13.85756982 5.12874802 14.53603053 5.13024551 C16.75207075 5.13390737 18.96804227 5.13041821 21.18408203 5.12698364 C22.78510638 5.12813539 24.38613047 5.12972327 25.98715401 5.13171089 C30.39421194 5.13589689 34.80124829 5.13381678 39.20830631 5.13072467 C43.95818798 5.12846784 48.70806586 5.1319516 53.45794678 5.13470459 C62.76595802 5.13915823 72.07396122 5.13818761 81.38197279 5.13529195 C88.94477371 5.13303633 96.50757237 5.13272609 104.07037354 5.13381577 C105.6830885 5.13404561 105.6830885 5.13404561 107.32838356 5.13428011 C109.51231051 5.13459982 111.69623745 5.13492404 113.88016438 5.1352527 C134.37335116 5.1381063 154.86653347 5.13482234 175.35971951 5.12945233 C192.95531004 5.1249844 210.55089397 5.12576037 228.14648438 5.13037109 C248.56483761 5.13571896 268.98318692 5.13783162 289.40154076 5.13475883 C291.57756933 5.13444027 293.75359789 5.1341259 295.92962646 5.13381577 C297.00035845 5.13366149 298.07109043 5.13350721 299.17426884 5.13334826 C306.7306211 5.13248375 314.28697088 5.13394458 321.84332275 5.13629532 C331.04819376 5.13909587 340.25305624 5.13834964 349.45792627 5.13301457 C354.15707271 5.13038103 358.85620491 5.12936668 363.55535126 5.13266373 C367.85332655 5.13563376 372.15127434 5.13402197 376.44924712 5.12868617 C378.00773458 5.12756503 379.56622433 5.12814652 381.12471032 5.13056196 C383.23632104 5.13358475 385.34783647 5.13050183 387.45944214 5.12584114 C388.63440687 5.12567879 389.8093716 5.12551644 391.01994133 5.12534916 C394.61765622 5.0194253 394.61765622 5.0194253 398 4 C398.66 2.68 399.32 1.36 400 0 C400 18.48 400 36.96 400 56 C268 56 136 56 0 56 C0 37.52 0 19.04 0 0 Z " fill="#F5F5F5" transform="translate(815,410)"/>
<path d="M0 0 C1.55134644 0.07154297 1.55134644 0.07154297 3.1340332 0.14453125 C13.01912418 0.82234877 21.63964858 3.70273053 30.73022461 7.47558594 C32.76186247 8.30212666 32.76186247 8.30212666 35.578125 8.734375 C36.25359375 8.88390625 36.9290625 9.0334375 37.625 9.1875 C39.47397609 12.44169791 40.44538634 15.56701644 41.484375 19.15625 C43.70140441 26.78864634 46.52727125 33.37161118 50.625 40.1875 C54.99628277 38.87611517 58.87710708 37.12339663 62.890625 34.9921875 C64.625 34.1875 64.625 34.1875 66.625 34.1875 C66.955 35.5075 67.285 36.8275 67.625 38.1875 C70.59517694 37.55939827 70.59517694 37.55939827 73.625 36.1875 C74.93568333 33.74461372 74.93568333 33.74461372 75.625 31.1875 C76.285 30.5275 76.945 29.8675 77.625 29.1875 C77.96308498 26.79679847 77.96308498 26.79679847 77.96875 24.03125 C77.99839844 23.00902344 78.02804687 21.98679688 78.05859375 20.93359375 C78.09146484 19.32677734 78.09146484 19.32677734 78.125 17.6875 C78.16826269 15.57271782 78.21992627 13.45808553 78.28125 11.34375 C78.29994141 10.40337891 78.31863281 9.46300781 78.33789062 8.49414062 C78.625 6.1875 78.625 6.1875 80.625 4.1875 C82.65625 3.92871094 82.65625 3.92871094 85.125 3.921875 C86.011875 3.91929687 86.89875 3.91671875 87.8125 3.9140625 C89.2046875 3.92566406 89.2046875 3.92566406 90.625 3.9375 C91.553125 3.92976562 92.48125 3.92203125 93.4375 3.9140625 C94.7678125 3.91792969 94.7678125 3.91792969 96.125 3.921875 C96.9396875 3.92413086 97.754375 3.92638672 98.59375 3.92871094 C100.625 4.1875 100.625 4.1875 102.625 6.1875 C102.87896729 8.1229248 102.87896729 8.1229248 102.88378906 10.51367188 C102.89009338 11.40799927 102.89639771 12.30232666 102.90289307 13.22375488 C102.89682037 14.67533997 102.89682037 14.67533997 102.890625 16.15625 C102.89253845 17.14749878 102.8944519 18.13874756 102.89642334 19.16003418 C102.89778585 21.25822198 102.89408482 23.35641819 102.88574219 25.45458984 C102.87504371 28.67434546 102.88563536 31.89354308 102.8984375 35.11328125 C102.89711592 37.14843874 102.89455355 39.18359588 102.890625 41.21875 C102.89467346 42.18647339 102.89872192 43.15419678 102.90289307 44.15124512 C102.89343658 45.49273621 102.89343658 45.49273621 102.88378906 46.86132812 C102.88219788 47.65027466 102.88060669 48.43922119 102.87896729 49.2520752 C102.625 51.1875 102.625 51.1875 100.625 53.1875 C98.59375 53.44628906 98.59375 53.44628906 96.125 53.453125 C95.238125 53.45570313 94.35125 53.45828125 93.4375 53.4609375 C92.509375 53.45320313 91.58125 53.44546875 90.625 53.4375 C89.696875 53.44523437 88.76875 53.45296875 87.8125 53.4609375 C86.4821875 53.45707031 86.4821875 53.45707031 85.125 53.453125 C84.3103125 53.45086914 83.495625 53.44861328 82.65625 53.44628906 C80.625 53.1875 80.625 53.1875 78.625 51.1875 C78.22735737 49.19928687 77.88724651 47.19805661 77.625 45.1875 C75.11534386 45.89089566 75.11534386 45.89089566 72.625 47.1875 C72.45013062 48.1161084 72.45013062 48.1161084 72.27172852 49.06347656 C71.31731302 52.19802347 69.51505315 52.82175534 66.71484375 54.421875 C65.72548828 54.99550781 64.73613281 55.56914062 63.71679688 56.16015625 C62.67587891 56.74667969 61.63496094 57.33320313 60.5625 57.9375 C59.51771484 58.53949219 58.47292969 59.14148438 57.39648438 59.76171875 C54.8123054 61.24850665 52.22190173 62.72308411 49.625 64.1875 C45.06469176 60.38274578 40.77410608 56.43780379 36.625 52.1875 C37.57434482 68.3360097 38.87385512 84.41327911 40.5625 100.5 C40.64846436 101.32053864 40.73442871 102.14107727 40.82299805 102.98648071 C41.16977676 106.29413812 41.51709576 109.60173821 41.86520386 112.90925598 C42.66918415 120.56499215 43.4428163 128.22335262 44.17727661 135.88607788 C44.36813196 137.86624261 44.56469702 139.84585447 44.76147461 141.82543945 C45.80094872 152.75778931 45.7472793 162.96078594 44.45236206 173.86331177 C43.33856471 183.32323204 42.68258135 192.81353169 42 202.3125 C41.86489156 204.15757468 41.7294763 206.00262692 41.59375 207.84765625 C41.26731445 212.29402146 40.94496694 216.74066482 40.625 221.1875 C36.005 221.1875 31.385 221.1875 26.625 221.1875 C26.4798999 220.04015381 26.3347998 218.89280762 26.18530273 217.71069336 C25.48398712 212.18131866 24.77478068 206.65297219 24.0625 201.125 C23.86633087 199.60193237 23.86633087 199.60193237 23.66619873 198.0480957 C21.29254704 179.69300634 18.63496845 161.38824987 15.81030273 143.09741211 C15.66414017 142.14072128 15.5179776 141.18403046 15.36738586 140.198349 C15.09516166 138.41768719 14.81929911 136.63757597 14.53898621 134.85816956 C13.88802074 130.58783934 13.47725771 126.52360512 13.625 122.1875 C12.965 122.1875 12.305 122.1875 11.625 122.1875 C11.64095215 123.20875977 11.6569043 124.23001953 11.67333984 125.28222656 C11.77857447 135.12261802 11.32734493 144.80190279 10.45697021 154.60089111 C9.04086857 170.58809818 8.03186389 186.57746485 7.27197266 202.60839844 C7.23513367 203.35791779 7.19829468 204.10743713 7.16033936 204.87966919 C7.06151146 206.89958927 6.96782094 208.91975887 6.87451172 210.93994141 C6.625 214.1875 6.625 214.1875 5.625 218.1875 C0.015 218.1875 -5.595 218.1875 -11.375 218.1875 C-12.36450948 200.71508042 -12.85024239 183.23883992 -13.30493164 165.74609375 C-13.39232788 162.38793972 -13.48250724 159.02988036 -13.57543945 155.671875 C-14.14256662 135.17102286 -14.53073532 114.6979219 -14.375 94.1875 C-15.365 94.6825 -15.365 94.6825 -16.375 95.1875 C-19.24609375 95.53515625 -19.24609375 95.53515625 -22.375 95.1875 C-24.53515625 93.18359375 -24.53515625 93.18359375 -26.4375 90.625 C-28.23035842 88.05137449 -28.23035842 88.05137449 -30.375 86.1875 C-32.9779414 86.51822561 -32.9779414 86.51822561 -35.375 87.1875 C-44.20306136 75.29796776 -52.89003643 63.32441676 -61.375 51.1875 C-57.15276944 43.11340998 -52.50351107 35.32127 -47.77832031 27.53417969 C-44.88880956 22.76094103 -42.10483481 17.95539839 -39.46142578 13.04101562 C-37.24968952 9.26764446 -34.93116546 7.63541706 -30.7421875 6.4296875 C-28.76965853 5.95042854 -26.78907506 5.50270894 -24.80078125 5.09375 C-21.8551852 4.31452733 -19.4524458 3.34486751 -16.69140625 2.10546875 C-11.02381675 -0.20659765 -6.05487919 -0.33381564 0 0 Z " fill="#E3E3E3" transform="translate(209.375,224.8125)"/>
<path d="M0 0 C1.09928361 -0.01043099 2.19856722 -0.02086198 3.33116245 -0.03160906 C5.14222933 -0.01822473 5.14222933 -0.01822473 6.98988342 -0.00457001 C8.2727143 -0.01080997 9.55554518 -0.01704993 10.87724972 -0.02347898 C14.44072592 -0.04020756 18.00377471 -0.03191028 21.56725264 -0.01953411 C25.40917861 -0.01050022 29.25103003 -0.02444505 33.09294128 -0.0354538 C40.62030433 -0.05326145 48.14750805 -0.04938909 55.67487741 -0.03780323 C61.79127579 -0.02877799 67.90762946 -0.02754096 74.02403259 -0.0318985 C74.89379917 -0.03251143 75.76356575 -0.03312436 76.65968889 -0.03375587 C78.42647784 -0.03503474 80.19326678 -0.03633159 81.96005571 -0.03764623 C98.53607592 -0.04905861 115.11200772 -0.03592803 131.68801343 -0.01444477 C145.9179942 0.00342682 160.14784446 0.00032289 174.37782288 -0.01811981 C190.89360612 -0.03951493 207.40931183 -0.04795991 223.925107 -0.03567076 C225.68547883 -0.03439653 227.44585068 -0.03313905 229.20622253 -0.0318985 C230.07241036 -0.0312814 230.93859818 -0.03066429 231.83103412 -0.03002849 C237.94169118 -0.02657151 244.05229915 -0.03241142 250.16294861 -0.04181671 C257.60752488 -0.05302301 265.0519324 -0.05002562 272.49648929 -0.02869374 C276.29650713 -0.01816473 280.0962434 -0.01409266 283.89625931 -0.02729034 C288.01120973 -0.04136591 292.12544616 -0.02458588 296.2403717 -0.00457001 C298.05143858 -0.01795434 298.05143858 -0.01795434 299.89909267 -0.03160906 C301.54801809 -0.01596257 301.54801809 -0.01596257 303.23025513 0 C304.18042542 0.00064941 305.13059572 0.00129882 306.10955906 0.00196791 C309.37164703 0.65475389 310.56925294 1.93286329 312.61512756 4.50336456 C313.13270569 7.09711456 313.13270569 7.09711456 313.14637756 10.00336456 C313.15153381 11.05523956 313.15669006 12.10711456 313.16200256 13.19086456 C313.14653381 14.28398956 313.13106506 15.37711456 313.11512756 16.50336456 C313.13059631 17.59648956 313.14606506 18.68961456 313.16200256 19.81586456 C313.15684631 20.86773956 313.15169006 21.91961456 313.14637756 23.00336456 C313.14186584 23.96242706 313.13735413 24.92148956 313.13270569 25.90961456 C312.45683553 29.29661672 311.27693166 30.3439022 308.61512756 32.50336456 C306.10955906 33.00476122 306.10955906 33.00476122 303.23025513 33.00672913 C301.58132971 33.02237561 301.58132971 33.02237561 299.89909267 33.03833818 C298.69171475 33.0294153 297.48433683 33.02049241 296.2403717 33.01129913 C294.95754083 33.0175391 293.67470995 33.02377906 292.35300541 33.03020811 C288.78952921 33.04693668 285.22648041 33.03863941 281.66300249 33.02626324 C277.82107652 33.01722935 273.9792251 33.03117418 270.13731384 33.04218292 C262.60995079 33.05999057 255.08274707 33.05611821 247.55537772 33.04453236 C241.43897933 33.03550712 235.32262567 33.03427009 229.20622253 33.03862762 C228.33645596 33.03924056 227.46668938 33.03985349 226.57056624 33.04048499 C224.80377728 33.04176387 223.03698834 33.04306072 221.27019942 33.04437536 C204.69417921 33.05578773 188.11824741 33.04265716 171.54224169 33.02117389 C157.31226092 33.00330231 143.08241066 33.00640623 128.85243225 33.02484894 C112.336649 33.04624406 95.82094329 33.05468904 79.30514812 33.04239988 C77.54477629 33.04112566 75.78440445 33.03986817 74.02403259 33.03862762 C73.15784477 33.03801052 72.29165694 33.03739342 71.399221 33.03675762 C65.28856395 33.03330064 59.17795598 33.03914055 53.06730652 33.04854584 C45.62273025 33.05975213 38.17832272 33.05675475 30.73376584 33.03542286 C26.93374799 33.02489386 23.13401173 33.02082179 19.33399582 33.03401947 C15.2190454 33.04809503 11.10480897 33.03131501 6.98988342 33.01129913 C5.7825055 33.02022202 4.57512758 33.02914491 3.33116245 33.03833818 C2.23187884 33.0279072 1.13259523 33.01747621 0 33.00672913 C-0.9501703 33.00607972 -1.9003406 33.00543031 -2.87930393 33.00476122 C-6.1413919 32.35197524 -7.33899782 31.07386583 -9.38487244 28.50336456 C-9.90245056 25.90961456 -9.90245056 25.90961456 -9.91612244 23.00336456 C-9.92127869 21.95148956 -9.92643494 20.89961456 -9.93174744 19.81586456 C-9.91627869 18.72273956 -9.90080994 17.62961456 -9.88487244 16.50336456 C-9.90034119 15.41023956 -9.91580994 14.31711456 -9.93174744 13.19086456 C-9.92401306 11.61305206 -9.92401306 11.61305206 -9.91612244 10.00336456 C-9.91161072 9.04430206 -9.907099 8.08523956 -9.90245056 7.09711456 C-8.80118423 1.57831574 -5.2651138 0.00359853 0 0 Z " fill="#F8F8F8" transform="translate(863.3848724365234,290.4966354370117)"/>
<path d="M0 0 C1.09928361 -0.01043099 2.19856722 -0.02086198 3.33116245 -0.03160906 C5.14222933 -0.01822473 5.14222933 -0.01822473 6.98988342 -0.00457001 C8.2727143 -0.01080997 9.55554518 -0.01704993 10.87724972 -0.02347898 C14.44072592 -0.04020756 18.00377471 -0.03191028 21.56725264 -0.01953411 C25.40917861 -0.01050022 29.25103003 -0.02444505 33.09294128 -0.0354538 C40.62030433 -0.05326145 48.14750805 -0.04938909 55.67487741 -0.03780323 C61.79127579 -0.02877799 67.90762946 -0.02754096 74.02403259 -0.0318985 C74.89379917 -0.03251143 75.76356575 -0.03312436 76.65968889 -0.03375587 C78.42647784 -0.03503474 80.19326678 -0.03633159 81.96005571 -0.03764623 C98.53607592 -0.04905861 115.11200772 -0.03592803 131.68801343 -0.01444477 C145.9179942 0.00342682 160.14784446 0.00032289 174.37782288 -0.01811981 C190.89360612 -0.03951493 207.40931183 -0.04795991 223.925107 -0.03567076 C225.68547883 -0.03439653 227.44585068 -0.03313905 229.20622253 -0.0318985 C230.07241036 -0.0312814 230.93859818 -0.03066429 231.83103412 -0.03002849 C237.94169118 -0.02657151 244.05229915 -0.03241142 250.16294861 -0.04181671 C257.60752488 -0.05302301 265.0519324 -0.05002562 272.49648929 -0.02869374 C276.29650713 -0.01816473 280.0962434 -0.01409266 283.89625931 -0.02729034 C288.01120973 -0.04136591 292.12544616 -0.02458588 296.2403717 -0.00457001 C298.05143858 -0.01795434 298.05143858 -0.01795434 299.89909267 -0.03160906 C301.54801809 -0.01596257 301.54801809 -0.01596257 303.23025513 0 C304.18042542 0.00064941 305.13059572 0.00129882 306.10955906 0.00196791 C309.37164703 0.65475389 310.56925294 1.93286329 312.61512756 4.50336456 C313.13270569 7.09711456 313.13270569 7.09711456 313.14637756 10.00336456 C313.15153381 11.05523956 313.15669006 12.10711456 313.16200256 13.19086456 C313.14653381 14.28398956 313.13106506 15.37711456 313.11512756 16.50336456 C313.13059631 17.59648956 313.14606506 18.68961456 313.16200256 19.81586456 C313.15684631 20.86773956 313.15169006 21.91961456 313.14637756 23.00336456 C313.14186584 23.96242706 313.13735413 24.92148956 313.13270569 25.90961456 C312.45683553 29.29661672 311.27693166 30.3439022 308.61512756 32.50336456 C306.10955906 33.00476122 306.10955906 33.00476122 303.23025513 33.00672913 C301.58132971 33.02237561 301.58132971 33.02237561 299.89909267 33.03833818 C298.69171475 33.0294153 297.48433683 33.02049241 296.2403717 33.01129913 C294.95754083 33.0175391 293.67470995 33.02377906 292.35300541 33.03020811 C288.78952921 33.04693668 285.22648041 33.03863941 281.66300249 33.02626324 C277.82107652 33.01722935 273.9792251 33.03117418 270.13731384 33.04218292 C262.60995079 33.05999057 255.08274707 33.05611821 247.55537772 33.04453236 C241.43897933 33.03550712 235.32262567 33.03427009 229.20622253 33.03862762 C228.33645596 33.03924056 227.46668938 33.03985349 226.57056624 33.04048499 C224.80377728 33.04176387 223.03698834 33.04306072 221.27019942 33.04437536 C204.69417921 33.05578773 188.11824741 33.04265716 171.54224169 33.02117389 C157.31226092 33.00330231 143.08241066 33.00640623 128.85243225 33.02484894 C112.336649 33.04624406 95.82094329 33.05468904 79.30514812 33.04239988 C77.54477629 33.04112566 75.78440445 33.03986817 74.02403259 33.03862762 C73.15784477 33.03801052 72.29165694 33.03739342 71.399221 33.03675762 C65.28856395 33.03330064 59.17795598 33.03914055 53.06730652 33.04854584 C45.62273025 33.05975213 38.17832272 33.05675475 30.73376584 33.03542286 C26.93374799 33.02489386 23.13401173 33.02082179 19.33399582 33.03401947 C15.2190454 33.04809503 11.10480897 33.03131501 6.98988342 33.01129913 C5.7825055 33.02022202 4.57512758 33.02914491 3.33116245 33.03833818 C2.23187884 33.0279072 1.13259523 33.01747621 0 33.00672913 C-0.9501703 33.00607972 -1.9003406 33.00543031 -2.87930393 33.00476122 C-6.1413919 32.35197524 -7.33899782 31.07386583 -9.38487244 28.50336456 C-9.90245056 25.90961456 -9.90245056 25.90961456 -9.91612244 23.00336456 C-9.92127869 21.95148956 -9.92643494 20.89961456 -9.93174744 19.81586456 C-9.91627869 18.72273956 -9.90080994 17.62961456 -9.88487244 16.50336456 C-9.90034119 15.41023956 -9.91580994 14.31711456 -9.93174744 13.19086456 C-9.92401306 11.61305206 -9.92401306 11.61305206 -9.91612244 10.00336456 C-9.91161072 9.04430206 -9.907099 8.08523956 -9.90245056 7.09711456 C-8.80118423 1.57831574 -5.2651138 0.00359853 0 0 Z " fill="#3A3B42" transform="translate(863.3848724365234,352.4966354370117)"/>
<path d="M0 0 C1.76159161 13.04998026 3.04960581 26.13815356 4.28710938 39.24682617 C4.62602365 42.82330231 4.97304105 46.39893623 5.3203125 49.97460938 C5.53955732 52.28120302 5.75832402 54.58784217 5.9765625 56.89453125 C6.13120468 58.47304619 6.13120468 58.47304619 6.28897095 60.08345032 C7.17369324 69.61222051 7.33658438 78.87149911 6.1015625 88.3671875 C4.8719658 98.59790693 4.11341464 108.84904194 3.375 119.125 C3.23989156 120.97007468 3.1044763 122.81512692 2.96875 124.66015625 C2.64231445 129.10652146 2.31996694 133.55316482 2 138 C-2.62 138 -7.24 138 -12 138 C-12.1451001 136.85265381 -12.2902002 135.70530762 -12.43969727 134.52319336 C-13.14101288 128.99381866 -13.85021932 123.46547219 -14.5625 117.9375 C-14.69327942 116.92212158 -14.82405884 115.90674316 -14.95880127 114.8605957 C-17.33245296 96.50550634 -19.99003155 78.20074987 -22.81469727 59.90991211 C-22.96085983 58.95322128 -23.1070224 57.99653046 -23.25761414 57.010849 C-23.52983834 55.23018719 -23.80570089 53.45007597 -24.08601379 51.67066956 C-24.73697926 47.40033934 -25.14774229 43.33610512 -25 39 C-25.66 39 -26.32 39 -27 39 C-26.97607178 40.53188965 -26.97607178 40.53188965 -26.95166016 42.09472656 C-26.84642553 51.93511802 -27.29765507 61.61440279 -28.16802979 71.41339111 C-29.58413143 87.40059818 -30.59313611 103.38996485 -31.35302734 119.42089844 C-31.40828583 120.54517746 -31.40828583 120.54517746 -31.46466064 121.69216919 C-31.56348854 123.71208927 -31.65717906 125.73225887 -31.75048828 127.75244141 C-32 131 -32 131 -33 135 C-38.61 135 -44.22 135 -50 135 C-50.98797149 117.54583706 -51.47515644 100.08795997 -51.92993164 82.61352539 C-52.01726589 79.26220516 -52.10744477 75.91098236 -52.20043945 72.55981445 C-52.66505029 55.80127895 -53.08669462 39.04261287 -53.18359375 22.27734375 C-53.19681168 21.06776505 -53.2100296 19.85818634 -53.22364807 18.61195374 C-53.2251738 17.51274094 -53.22669952 16.41352814 -53.22827148 15.28100586 C-53.23277817 14.32721542 -53.23728485 13.37342499 -53.2419281 12.39073181 C-53 10 -53 10 -51 7 C-49.28490234 7.23783203 -49.28490234 7.23783203 -47.53515625 7.48046875 C-31.60620794 9.45102421 -17.10189179 7.82489113 -2.5390625 0.734375 C-1 0 -1 0 0 0 Z " fill="#313043" transform="translate(248,308)"/>
<path d="M0 0 C0.66 0 1.32 0 2 0 C3.40173989 9.50215158 4.8015605 19.00458347 6.19904137 28.50736237 C6.84825165 32.92154742 7.49808227 37.33563916 8.14941406 41.74951172 C8.77989041 46.02222103 9.40862829 50.2951831 10.03624344 54.5683136 C10.27401535 56.18517363 10.51237663 57.80194712 10.75138474 59.41862488 C11.94267164 67.47926266 13.10626872 75.54348182 14.16259766 83.62304688 C14.4058226 85.46811829 14.4058226 85.46811829 14.65396118 87.35046387 C15.02606021 91.27484684 15.05825637 95.06085045 15 99 C18.63 99 22.26 99 26 99 C26 99.66 26 100.32 26 101 C27.299375 100.9071875 27.299375 100.9071875 28.625 100.8125 C32.56245658 101.03124759 34.6942783 101.86964602 38 104 C41 108.1 41 108.1 41 111 C63.11 111 85.22 111 108 111 C108 111.33 108 111.66 108 112 C31.11 112 -45.78 112 -125 112 C-125 111.67 -125 111.34 -125 111 C-91.34 111 -57.68 111 -23 111 C-23 107.7 -23 104.4 -23 101 C-22.34 101 -21.68 101 -21 101 C-21 99.35 -21 97.7 -21 96 C-16.05 96 -11.1 96 -6 96 C-5.88724731 93.82289429 -5.88724731 93.82289429 -5.7722168 91.60180664 C-4.1818618 61.03958057 -2.40398159 30.50969562 0 0 Z " fill="#F0EFF0" transform="translate(221,347)"/>
<path d="M0 0 C1.07701172 -0.04576172 2.15402344 -0.09152344 3.26367188 -0.13867188 C8.60841483 -0.21404225 12.31451085 -0.19280302 16.51953125 3.33984375 C21.45586629 8.30183777 20.56631941 13.50573703 20.625 20.1875 C20.65400391 21.27289063 20.68300781 22.35828125 20.71289062 23.4765625 C20.76291448 29.77187256 20.65194999 33.7149274 16.3125 38.4375 C11.46380633 41.66996245 6.13704173 40.80633833 0.4375 40.8125 C-0.74714844 40.83699219 -1.93179687 40.86148438 -3.15234375 40.88671875 C-4.86744141 40.89251953 -4.86744141 40.89251953 -6.6171875 40.8984375 C-7.66116699 40.90665527 -8.70514648 40.91487305 -9.78076172 40.92333984 C-13.45238236 40.30965556 -15.06034767 39.03609012 -17.6875 36.4375 C-20.84826115 31.7401245 -20.13539145 26.08011432 -20.1875 20.625 C-20.22875 19.55701172 -20.27 18.48902344 -20.3125 17.38867188 C-20.36508427 12.07437407 -20.28718749 8.41491055 -16.78125 4.23828125 C-11.85293688 -0.68027729 -6.65406848 0.11344385 0 0 Z " fill="#FCF1C5" transform="translate(1329.6875,15.5625)"/>
<path d="M0 0 C0.886875 -0.00257813 1.77375 -0.00515625 2.6875 -0.0078125 C4.0796875 0.00378906 4.0796875 0.00378906 5.5 0.015625 C6.428125 0.00789062 7.35625 0.00015625 8.3125 -0.0078125 C9.6428125 -0.00394531 9.6428125 -0.00394531 11 0 C11.8146875 0.00225586 12.629375 0.00451172 13.46875 0.00683594 C15.5 0.265625 15.5 0.265625 17.5 2.265625 C17.75396729 4.2010498 17.75396729 4.2010498 17.75878906 6.59179688 C17.76509338 7.48612427 17.77139771 8.38045166 17.77789307 9.30187988 C17.7738446 10.26960327 17.76979614 11.23732666 17.765625 12.234375 C17.76753845 13.22562378 17.7694519 14.21687256 17.77142334 15.23815918 C17.77278585 17.33634698 17.76908482 19.43454319 17.76074219 21.53271484 C17.75004371 24.75247046 17.76063536 27.97166808 17.7734375 31.19140625 C17.77211592 33.22656374 17.76955355 35.26172088 17.765625 37.296875 C17.76967346 38.26459839 17.77372192 39.23232178 17.77789307 40.22937012 C17.77158875 41.12369751 17.76528442 42.0180249 17.75878906 42.93945312 C17.75640228 44.12287292 17.75640228 44.12287292 17.75396729 45.3302002 C17.5 47.265625 17.5 47.265625 15.5 49.265625 C13.46875 49.52441406 13.46875 49.52441406 11 49.53125 C10.113125 49.53382813 9.22625 49.53640625 8.3125 49.5390625 C7.384375 49.53132813 6.45625 49.52359375 5.5 49.515625 C4.571875 49.52335937 3.64375 49.53109375 2.6875 49.5390625 C1.3571875 49.53519531 1.3571875 49.53519531 0 49.53125 C-0.8146875 49.52899414 -1.629375 49.52673828 -2.46875 49.52441406 C-4.5 49.265625 -4.5 49.265625 -6.5 47.265625 C-6.75396729 45.3302002 -6.75396729 45.3302002 -6.75878906 42.93945312 C-6.76509338 42.04512573 -6.77139771 41.15079834 -6.77789307 40.22937012 C-6.7738446 39.26164673 -6.76979614 38.29392334 -6.765625 37.296875 C-6.76753845 36.30562622 -6.7694519 35.31437744 -6.77142334 34.29309082 C-6.77278585 32.19490302 -6.76908482 30.09670681 -6.76074219 27.99853516 C-6.75004371 24.77877954 -6.76063536 21.55958192 -6.7734375 18.33984375 C-6.77211592 16.30468626 -6.76955355 14.26952912 -6.765625 12.234375 C-6.77169769 10.78278992 -6.77169769 10.78278992 -6.77789307 9.30187988 C-6.77158875 8.40755249 -6.76528442 7.5132251 -6.75878906 6.59179688 C-6.75719788 5.80285034 -6.75560669 5.01390381 -6.75396729 4.2010498 C-6.20403265 0.01012762 -3.58554304 0.00992832 0 0 Z " fill="#6B62FB" transform="translate(294.5,228.734375)"/>
<path d="M0 0 C8.4055836 3.75172556 8.4055836 3.75172556 10.25 7.625 C10.4975 8.40875 10.745 9.1925 11 10 C13.51364756 11.82619087 13.51364756 11.82619087 16 13 C15.67 13.99 15.34 14.98 15 16 C14.01257813 15.91621094 13.02515625 15.83242187 12.0078125 15.74609375 C10.72648437 15.64425781 9.44515625 15.54242188 8.125 15.4375 C6.84882813 15.33308594 5.57265625 15.22867188 4.2578125 15.12109375 C1.11356058 14.74316633 1.11356058 14.74316633 -1 16 C-1.495 16.845625 -1.99 17.69125 -2.5 18.5625 C-2.995 19.366875 -3.49 20.17125 -4 21 C-4.66 21 -5.32 21 -6 21 C-5.67 24.63 -5.34 28.26 -5 32 C-6.65 32 -8.3 32 -10 32 C-10.66 32.99 -11.32 33.98 -12 35 C-17.10475173 34.32166587 -19.35521677 30.84888531 -22.34765625 26.96484375 C-25.11108833 22.00634506 -24.93360823 17.49088227 -24 12 C-22.8125 8.375 -22.8125 8.375 -21 6 C-19.3482075 5.29728828 -17.67895551 4.63508317 -16 4 C-14.3492968 3.11317213 -12.70345904 2.21723097 -11.0625 1.3125 C-6.85876356 -0.77696782 -4.56195906 -1.74713326 0 0 Z " fill="#343244" transform="translate(213,182)"/>
<path d="M0 0 C3.06345144 -0.10822792 6.1230601 -0.18741479 9.1875 -0.25 C10.05181641 -0.28351563 10.91613281 -0.31703125 11.80664062 -0.3515625 C15.93635701 -0.41485317 18.38451839 -0.34359793 22.05078125 1.703125 C24 4 24 4 25 9 C29.62 9 34.24 9 39 9 C39 6.03 39 3.06 39 0 C41.91691525 -0.05401695 44.83282724 -0.09368066 47.75 -0.125 C48.575 -0.14175781 49.4 -0.15851563 50.25 -0.17578125 C51.04921875 -0.18222656 51.8484375 -0.18867188 52.671875 -0.1953125 C53.4050293 -0.20578613 54.13818359 -0.21625977 54.89355469 -0.22705078 C57.35419445 0.03817812 58.90381075 0.69586527 61 2 C64 6.28571429 64 6.28571429 64 9 C86.11 9 108.22 9 131 9 C131 9.33 131 9.66 131 10 C54.11 10 -22.78 10 -102 10 C-102 9.67 -102 9.34 -102 9 C-68.34 9 -34.68 9 0 9 C0 6.03 0 3.06 0 0 Z " fill="#C9C9C9" transform="translate(198,449)"/>
<path d="M0 0 C0.33 0.66 0.66 1.32 1 2 C-1.07876959 4.4605007 -2.28968683 5.8590602 -5.50375915 6.49679399 C-6.92771038 6.49451566 -6.92771038 6.49451566 -8.38042831 6.49219131 C-9.47869532 6.50015551 -10.57696233 6.5081197 -11.70851016 6.51632524 C-12.91472561 6.50467387 -14.12094106 6.4930225 -15.3637085 6.48101807 C-16.64527808 6.48443577 -17.92684767 6.48785347 -19.2472527 6.49137473 C-22.80708836 6.50033062 -26.36644381 6.4843032 -29.92621827 6.46426249 C-33.76394792 6.44701045 -37.60164984 6.45283259 -41.43940735 6.45587158 C-48.08941835 6.45797037 -54.73927253 6.44540596 -61.38924408 6.42292023 C-71.00399421 6.39043074 -80.61866841 6.37999634 -90.23346749 6.37496826 C-105.83228305 6.36621081 -121.431015 6.33958304 -137.02978516 6.30175781 C-152.18375225 6.26504936 -167.33769665 6.2367319 -182.49169922 6.21972656 C-183.8925173 6.21815022 -183.8925173 6.21815022 -185.32163474 6.21654204 C-190.00656636 6.21132194 -194.69149814 6.20626709 -199.37643003 6.20129442 C-238.2510119 6.15981838 -277.12550044 6.08935771 -316 6 C-316.33 5.34 -316.66 4.68 -317 4 C-316.33672469 3.99902319 -315.67344938 3.99804638 -314.99007481 3.99703997 C-275.70932909 3.93881197 -236.42864016 3.86504868 -197.14796312 3.77101372 C-192.43514951 3.75974508 -187.7223356 3.74860671 -183.00952148 3.73754883 C-182.07125538 3.73534514 -181.13298927 3.73314146 -180.16629086 3.730871 C-164.95905597 3.69546501 -149.75182114 3.67061954 -134.54456028 3.64965298 C-118.94921157 3.62791718 -103.35391651 3.59488801 -87.75861341 3.55129844 C-78.12965857 3.52474334 -68.50077063 3.50707643 -58.87178097 3.50065396 C-52.27554074 3.49541184 -45.6793848 3.47923468 -39.08318969 3.45433434 C-35.27325057 3.4402788 -31.46346247 3.43116354 -27.65349579 3.43499184 C-23.52930813 3.43901038 -19.40555206 3.42006337 -15.28141785 3.39872742 C-14.06839861 3.40357499 -12.85537937 3.40842257 -11.60560197 3.41341704 C-10.50584261 3.4039605 -9.40608325 3.39450396 -8.27299786 3.38476086 C-7.32027955 3.38286225 -6.36756124 3.38096365 -5.38597268 3.37900752 C-2.60422206 2.93713138 -1.72258884 2.17222954 0 0 Z " fill="#E6E6E8" transform="translate(1175,381)"/>
<path d="M0 0 C0.78246094 0.09023437 1.56492188 0.18046875 2.37109375 0.2734375 C4.5625 0.625 4.5625 0.625 7.5625 1.625 C9.29295446 5.08590891 8.90829074 8.83410888 8.5625 12.625 C6.73715409 17.89822153 3.95530797 20.42191086 -0.4375 23.625 C-5.69288604 25.37679535 -9.92638781 25.27261951 -14.9375 23.125 C-15.7625 22.63 -16.5875 22.135 -17.4375 21.625 C-16.7775 19.975 -16.1175 18.325 -15.4375 16.625 C-14.1175 16.625 -12.7975 16.625 -11.4375 16.625 C-11.47230469 15.92632812 -11.50710937 15.22765625 -11.54296875 14.5078125 C-11.57003906 13.59773437 -11.59710938 12.68765625 -11.625 11.75 C-11.65980469 10.84507812 -11.69460937 9.94015625 -11.73046875 9.0078125 C-11.63378906 8.22148437 -11.53710938 7.43515625 -11.4375 6.625 C-10.4475 5.965 -9.4575 5.305 -8.4375 4.625 C-7.75481862 3.29979497 -7.0867959 1.96687818 -6.4375 0.625 C-3.9632021 -0.61214895 -2.72250667 -0.33081362 0 0 Z " fill="#FDB5B5" transform="translate(218.4375,196.375)"/>
<path d="M0 0 C1.25908676 0.00222061 2.51817352 0.00444122 3.81541443 0.00672913 C4.50806396 0.0065831 5.2007135 0.00643707 5.91435242 0.00628662 C8.21400537 0.00698577 10.51357828 0.01477823 12.81321716 0.02259827 C14.40362504 0.02446244 15.99403349 0.02588635 17.58444214 0.02688599 C21.77827021 0.03071123 25.97206386 0.04054156 30.1658783 0.05158997 C34.44220006 0.06180395 38.71852736 0.06638358 42.99485779 0.07142639 C51.39135799 0.08216383 59.78783017 0.09924032 68.18431091 0.12025452 C68.67931091 2.10025452 68.67931091 2.10025452 69.18431091 4.12025452 C66.2851618 5.56982907 63.77002791 5.23958376 60.53147888 5.23377991 C59.50691589 5.23399895 59.50691589 5.23399895 58.46165466 5.23422241 C56.19990381 5.23352474 53.93823491 5.22573917 51.67649841 5.21791077 C50.10994003 5.21604607 48.54338107 5.21462241 46.9768219 5.21362305 C42.85041193 5.20980194 38.72403707 5.19997512 34.59764099 5.18891907 C30.38825455 5.17869621 26.17886244 5.17412355 21.96946716 5.16908264 C13.70773229 5.1583525 5.44602597 5.14128094 -2.81568909 5.12025452 C-3.37818909 3.18275452 -3.37818909 3.18275452 -3.81568909 1.12025452 C-2.81568909 0.12025452 -2.81568909 0.12025452 0 0 Z " fill="#CECECE" transform="translate(358.81568908691406,174.87974548339844)"/>
<path d="M0 0 C24.09 0 48.18 0 73 0 C73 1.32 73 2.64 73 4 C48.91 4 24.82 4 0 4 C0 2.68 0 1.36 0 0 Z " fill="#CCCCCC" transform="translate(512,271)"/>
<path d="M0 0 C0.33 0 0.66 0 1 0 C1 5.61 1 11.22 1 17 C18.49 17 35.98 17 54 17 C54.495 18.98 54.495 18.98 55 21 C52.49450555 22.25274723 50.80264368 22.12029624 47.99951172 22.11352539 C46.43811966 22.11341209 46.43811966 22.11341209 44.84518433 22.11329651 C43.71807037 22.10813522 42.59095642 22.10297394 41.4296875 22.09765625 C40.27832306 22.0962413 39.12695862 22.09482635 37.94070435 22.09336853 C34.25211014 22.08775716 30.56357595 22.0752027 26.875 22.0625 C24.37890712 22.05748647 21.8828133 22.05292331 19.38671875 22.04882812 C13.25779191 22.03778403 7.12890024 22.0210348 1 22 C0.67 22.99 0.34 23.98 0 25 C0 16.75 0 8.5 0 0 Z " fill="#CECECE" transform="translate(530,237)"/>
<path d="M0 0 C24.09 0 48.18 0 73 0 C73 1.32 73 2.64 73 4 C48.91 4 24.82 4 0 4 C0 2.68 0 1.36 0 0 Z " fill="#CCCCCC" transform="translate(434,224)"/>
<path d="M0 0 C23.76 0 47.52 0 72 0 C72.495 1.98 72.495 1.98 73 4 C48.91 4 24.82 4 0 4 C0 2.68 0 1.36 0 0 Z " fill="#CCCCCC" transform="translate(355,159)"/>
<path d="M0 0 C18.15 0 36.3 0 55 0 C55.495 1.98 55.495 1.98 56 4 C53.45061185 5.27469407 51.66959002 5.12016184 48.81591797 5.11352539 C47.73494843 5.11344986 46.65397888 5.11337433 45.54025269 5.11329651 C43.78396042 5.10555458 43.78396042 5.10555458 41.9921875 5.09765625 C40.79643097 5.0962413 39.60067444 5.09482635 38.36868286 5.09336853 C34.53743013 5.08775663 30.70623516 5.07520208 26.875 5.0625 C24.28255293 5.05748653 21.69010494 5.05292336 19.09765625 5.04882812 C12.73175102 5.03778333 6.36587963 5.02103359 0 5 C0 3.35 0 1.7 0 0 Z " fill="#CECECE" transform="translate(451,207)"/>
<path d="M0 0 C2.93366458 2.93366458 3.74657088 6.61577214 5.0390625 10.47265625 C5.32478119 11.31090439 5.61049988 12.14915253 5.90487671 13.01280212 C6.50768235 14.78470507 7.10767789 16.55756614 7.70507812 18.33129883 C8.62309897 21.05685594 9.54903579 23.77961797 10.4765625 26.50195312 C11.06035713 28.22119759 11.64370582 29.94059357 12.2265625 31.66015625 C12.50464752 32.47992447 12.78273254 33.29969269 13.06924438 34.14430237 C15 39.88190929 15 39.88190929 15 41 C12.125 41.1875 12.125 41.1875 9 41 C8.34 40.01 7.68 39.02 7 38 C7.38091797 36.65808594 7.38091797 36.65808594 7.76953125 35.2890625 C8.03588179 31.48792432 7.65593303 31.08014396 5.32421875 28.2734375 C4.12938973 26.95793207 2.916324 25.6588078 1.6875 24.375 C0.47956694 23.0735578 -0.72498692 21.76896925 -1.92578125 20.4609375 C-2.46630127 19.89165527 -3.00682129 19.32237305 -3.5637207 18.73583984 C-5.10888528 16.86840483 -6.16804075 15.28080772 -7 13 C-5.98613427 10.5453777 -4.97276745 8.50453746 -3.625 6.25 C-3.28210938 5.64800781 -2.93921875 5.04601562 -2.5859375 4.42578125 C-1.73822182 2.94227881 -0.87094495 1.46998513 0 0 Z " fill="#F4F3F3" transform="translate(178,266)"/>
<path d="M0 0 C5.28 0 10.56 0 16 0 C16 5.28 16 10.56 16 16 C10.72 16 5.44 16 0 16 C0 10.72 0 5.44 0 0 Z " fill="#146CC4" transform="translate(1116,176)"/>
<path d="M0 0 C2.87459336 1.99971712 4.62907801 3.48939028 5.484375 6.97265625 C5.73357225 10.67600428 5.29743405 12.63947388 2.9375 15.5 C-0.79977041 17.4083934 -2.85798669 17.73964523 -7 17 C-10 14.4375 -10 14.4375 -12 11 C-12.14971147 6.65836732 -11.72194213 4.80444981 -8.8125 1.5625 C-5.43724821 -0.31263988 -3.7992366 -0.71235686 0 0 Z " fill="#7870FF" transform="translate(502,237)"/>
<path d="M0 0 C3.32961021 0.55493503 5.30091917 1.49496853 8 3.5 C9.56935594 6.63871188 9.35201103 9.03855822 9 12.5 C6.41370196 16.18351539 4.93024874 17.31727257 0.5 18.1875 C-3 17.5 -3 17.5 -5.9375 14.875 C-8.18818265 11.19206475 -8.89426216 9.70303214 -8 5.5 C-5.53511495 2.16515552 -4.13239709 0.68873285 0 0 Z " fill="#786FFF" transform="translate(419,188.5)"/>
<path d="M0 0 C2.12890625 0.4140625 2.12890625 0.4140625 4.69140625 1.9765625 C6.70105349 5.38422522 6.67568764 7.51824513 6.12890625 11.4140625 C4.62890625 14.3515625 4.62890625 14.3515625 2.12890625 16.4140625 C-2.89564804 17.2116108 -4.70836204 17.23766413 -8.87109375 14.2890625 C-10.87109375 11.4140625 -10.87109375 11.4140625 -11.43359375 8.4140625 C-10.12210775 1.41947051 -6.70765741 -0.41991924 0 0 Z " fill="#776FFF" transform="translate(578.87109375,284.5859375)"/>
<path d="M0 0 C3.06345144 -0.10822792 6.1230601 -0.18741479 9.1875 -0.25 C10.05181641 -0.28351563 10.91613281 -0.31703125 11.80664062 -0.3515625 C15.93635701 -0.41485317 18.38451839 -0.34359793 22.05078125 1.703125 C24 4 24 4 25 9 C16.75 9 8.5 9 0 9 C0 6.03 0 3.06 0 0 Z " fill="#383749" transform="translate(198,449)"/>
<path d="M0 0 C2.91691525 -0.05401695 5.83282724 -0.09368066 8.75 -0.125 C9.575 -0.14175781 10.4 -0.15851563 11.25 -0.17578125 C12.04921875 -0.18222656 12.8484375 -0.18867188 13.671875 -0.1953125 C14.4050293 -0.20578613 15.13818359 -0.21625977 15.89355469 -0.22705078 C18.36885304 0.03975815 19.90029251 0.6693007 22 2 C24 5 24 5 24 9 C16.08 9 8.16 9 0 9 C0 6.03 0 3.06 0 0 Z " fill="#343345" transform="translate(237,449)"/>
<path d="M0 0 C1.32 0.66 2.64 1.32 4 2 C4 2.66 4 3.32 4 4 C4.9075 3.9175 5.815 3.835 6.75 3.75 C10 4 10 4 12.375 5.8125 C14 8 14 8 14 11 C14.66 11.33 15.32 11.66 16 12 C10.90291262 16.85436893 10.90291262 16.85436893 7.09375 17.46875 C2.92936611 16.83778274 1.77065283 15.20685191 -0.875 12 C-1.65617188 11.071875 -2.43734375 10.14375 -3.2421875 9.1875 C-4.11230469 8.1046875 -4.11230469 8.1046875 -5 7 C-3.64062915 4.1394109 -2.35479531 2.14072301 0 0 Z " fill="#FCB5B5" transform="translate(183,303)"/>
<path d="M0 0 C1.93742341 -0.02703381 3.87495479 -0.04641125 5.8125 -0.0625 C6.89144531 -0.07410156 7.97039063 -0.08570312 9.08203125 -0.09765625 C12 0 12 0 15 1 C15.33 0.67 15.66 0.34 16 0 C18.33944736 0.28730055 20.6739143 0.61936779 23 1 C23 3.64 23 6.28 23 9 C19.04 9 15.08 9 11 9 C11 7.02 11 5.04 11 3 C10.01 3 9.02 3 8 3 C8 4.98 8 6.96 8 9 C7.01 9 6.02 9 5 9 C5 7.02 5 5.04 5 3 C4.34 3 3.68 3 3 3 C3 4.98 3 6.96 3 9 C2.01 9 1.02 9 0 9 C0 6.03 0 3.06 0 0 Z " fill="#2A292E" transform="translate(1009,99)"/>
<path d="M0 0 C2.95857409 -0.05379226 5.91617721 -0.09357093 8.875 -0.125 C9.71675781 -0.14175781 10.55851562 -0.15851563 11.42578125 -0.17578125 C12.23144531 -0.18222656 13.03710938 -0.18867188 13.8671875 -0.1953125 C14.61081543 -0.20578613 15.35444336 -0.21625977 16.12060547 -0.22705078 C18 0 18 0 20 2 C20.25396729 3.9354248 20.25396729 3.9354248 20.25878906 6.32617188 C20.26509338 7.22049927 20.27139771 8.11482666 20.27789307 9.03625488 C20.2738446 10.00397827 20.26979614 10.97170166 20.265625 11.96875 C20.26753845 12.95999878 20.2694519 13.95124756 20.27142334 14.97253418 C20.27278585 17.07072198 20.26908482 19.16891819 20.26074219 21.26708984 C20.25004371 24.48684546 20.26063536 27.70604308 20.2734375 30.92578125 C20.27211592 32.96093874 20.26955355 34.99609588 20.265625 37.03125 C20.26967346 37.99897339 20.27372192 38.96669678 20.27789307 39.96374512 C20.27158875 40.85807251 20.26528442 41.7523999 20.25878906 42.67382812 C20.25640228 43.85724792 20.25640228 43.85724792 20.25396729 45.0645752 C20 47 20 47 18 49 C15.96875 49.25878906 15.96875 49.25878906 13.5 49.265625 C12.613125 49.26820313 11.72625 49.27078125 10.8125 49.2734375 C9.884375 49.26570313 8.95625 49.25796875 8 49.25 C7.071875 49.25773437 6.14375 49.26546875 5.1875 49.2734375 C3.8571875 49.26957031 3.8571875 49.26957031 2.5 49.265625 C1.6853125 49.26336914 0.870625 49.26111328 0.03125 49.25878906 C-2 49 -2 49 -4 47 C-4.24050903 45.08908081 -4.24050903 45.08908081 -4.22705078 42.73388672 C-4.22689972 41.85312469 -4.22674866 40.97236267 -4.22659302 40.06491089 C-4.21627045 39.11278717 -4.20594788 38.16066345 -4.1953125 37.1796875 C-4.1924826 36.20589142 -4.18965271 35.23209534 -4.18673706 34.22879028 C-4.17551913 31.11073651 -4.1504117 27.99296732 -4.125 24.875 C-4.11497228 22.76432706 -4.10584607 20.65364962 -4.09765625 18.54296875 C-4.07557458 13.36188165 -4.04208129 8.18096115 -4 3 C-3.67 3 -3.34 3 -3 3 C-2.97494385 4.26183105 -2.9498877 5.52366211 -2.92407227 6.82373047 C-2.83007894 11.49408569 -2.72983869 16.16428937 -2.62768555 20.83447266 C-2.58430605 22.85787416 -2.54263322 24.88131299 -2.50268555 26.90478516 C-2.44505592 29.80903384 -2.3813406 32.71309411 -2.31640625 35.6171875 C-2.29969376 36.52556366 -2.28298126 37.43393982 -2.26576233 38.36984253 C-2.24581711 39.21056305 -2.22587189 40.05128357 -2.20532227 40.91748047 C-2.18977798 41.65916473 -2.1742337 42.400849 -2.15821838 43.16500854 C-2.10526504 45.09674104 -2.10526504 45.09674104 -1 47 C1.97922593 47.02683987 4.95821295 47.04676037 7.9375 47.0625 C8.78763672 47.07087891 9.63777344 47.07925781 10.51367188 47.08789062 C11.32255859 47.09111328 12.13144531 47.09433594 12.96484375 47.09765625 C13.7137085 47.10289307 14.46257324 47.10812988 15.23413086 47.11352539 C17.02667739 47.19341752 17.02667739 47.19341752 18 46 C18.09268999 44.64905018 18.11747326 43.29332909 18.11352539 41.93920898 C18.11341209 40.64798378 18.11341209 40.64798378 18.11329651 39.33067322 C18.10555458 37.92755638 18.10555458 37.92755638 18.09765625 36.49609375 C18.09553383 35.06657127 18.09553383 35.06657127 18.09336853 33.60816956 C18.08775152 30.55124835 18.07519616 27.49439923 18.0625 24.4375 C18.05748719 22.37044376 18.05292391 20.30338638 18.04882812 18.23632812 C18.03777656 13.15752412 18.02050055 8.0787743 18 3 C16.68 2.34 15.36 1.68 14 1 C14 1.66 14 2.32 14 3 C10.04 3 6.08 3 2 3 C2 2.34 2 1.68 2 1 C1.34 0.67 0.68 0.34 0 0 Z " fill="#514E74" transform="translate(292,229)"/>
<path d="M0 0 C1.4540625 0.0309375 1.4540625 0.0309375 2.9375 0.0625 C2.9375 1.0525 2.9375 2.0425 2.9375 3.0625 C1.6175 3.3925 0.2975 3.7225 -1.0625 4.0625 C0.5875 5.0525 2.2375 6.0425 3.9375 7.0625 C3.0625 11.9375 3.0625 11.9375 1.9375 13.0625 C0.12822719 13.18737758 -1.68646107 13.23820846 -3.5 13.25 C-4.98306641 13.27126953 -4.98306641 13.27126953 -6.49609375 13.29296875 C-9.0625 13.0625 -9.0625 13.0625 -11.0625 11.0625 C-11.1875 8.4375 -11.1875 8.4375 -11.0625 6.0625 C-12.3825 6.3925 -13.7025 6.7225 -15.0625 7.0625 C-15.0625 9.0425 -15.0625 11.0225 -15.0625 13.0625 C-16.0525 13.0625 -17.0425 13.0625 -18.0625 13.0625 C-18.0625 10.0925 -18.0625 7.1225 -18.0625 4.0625 C-15.7525 4.0625 -13.4425 4.0625 -11.0625 4.0625 C-11.0625 3.0725 -11.0625 2.0825 -11.0625 1.0625 C-10.0725 1.0625 -9.0825 1.0625 -8.0625 1.0625 C-8.0625 2.0525 -8.0625 3.0425 -8.0625 4.0625 C-7.4025 4.0625 -6.7425 4.0625 -6.0625 4.0625 C-6.0625 4.7225 -6.0625 5.3825 -6.0625 6.0625 C-6.7225 6.0625 -7.3825 6.0625 -8.0625 6.0625 C-8.0625 7.3825 -8.0625 8.7025 -8.0625 10.0625 C-5.4225 10.0625 -2.7825 10.0625 -0.0625 10.0625 C-0.0625 9.4025 -0.0625 8.7425 -0.0625 8.0625 C-1.7125 7.4025 -3.3625 6.7425 -5.0625 6.0625 C-3.98897059 0.08140756 -3.98897059 0.08140756 0 0 Z " fill="#43414B" transform="translate(1052.0625,94.9375)"/>
<path d="M0 0 C3.72975427 1.15283314 5.35163561 1.75988138 7.4375 5.0625 C7.4375 9.13885432 7.05094006 11.29075283 4.5 14.5 C2.4375 16.0625 2.4375 16.0625 0.4375 16.0625 C0.4375 14.0825 0.4375 12.1025 0.4375 10.0625 C1.0975 10.0625 1.7575 10.0625 2.4375 10.0625 C2.4375 9.4025 2.4375 8.7425 2.4375 8.0625 C1.7775 8.0625 1.1175 8.0625 0.4375 8.0625 C1.0975 6.4125 1.7575 4.7625 2.4375 3.0625 C1.4475 3.3925 0.4575 3.7225 -0.5625 4.0625 C-1.29573796 6.07758358 -1.29573796 6.07758358 -1.5625 8.0625 C-2.2225 8.0625 -2.8825 8.0625 -3.5625 8.0625 C-3.5625 8.7225 -3.5625 9.3825 -3.5625 10.0625 C-2.9025 10.0625 -2.2425 10.0625 -1.5625 10.0625 C-1.5625 12.0425 -1.5625 14.0225 -1.5625 16.0625 C-6.16720588 14.60838235 -6.16720588 14.60838235 -7.875 12.25 C-8.72595413 9.54241868 -9.04438339 7.88495987 -8.5625 5.0625 C-5.86916803 1.30815847 -4.69314309 0.08233584 0 0 Z " fill="#2E83F4" transform="translate(905.5625,175.9375)"/>
<path d="M0 0 C0.185625 1.11375 0.37125 2.2275 0.5625 3.375 C1.036875 4.57125 1.51125 5.7675 2 7 C5.51400668 8.54086322 5.51400668 8.54086322 9 9 C8.6875 11.375 8.6875 11.375 8 14 C4.24952518 16.50031654 2.44143734 16.53603554 -2 16 C-5.38121991 13.55401113 -6.76936783 12.10703441 -7.625 8 C-6.80818595 4.07929255 -4.42757353 0 0 0 Z " fill="#4A5052" transform="translate(1329,28)"/>
<path d="M0 0 C0.66 0.33 1.32 0.66 2 1 C1.67 1.99 1.34 2.98 1 4 C0.05125 3.95875 -0.8975 3.9175 -1.875 3.875 C-5.10244856 3.65026182 -5.10244856 3.65026182 -7 6 C-6.67958603 8.60280568 -6.67958603 8.60280568 -6 11 C-2.52852158 11.74957157 -2.52852158 11.74957157 1 12 C1 11.34 1 10.68 1 10 C-0.32 10 -1.64 10 -3 10 C-3 8.68 -3 7.36 -3 6 C-0.36 6 2.28 6 5 6 C4.51644989 12.40703902 4.51644989 12.40703902 2.3125 14.9375 C-0.73602877 16.33817538 -2.67926952 16.4842732 -6 16 C-9.20907572 13.8317056 -9.91479011 12.27567907 -11.0625 8.5625 C-11 5 -11 5 -8.9375 2.0625 C-5.5619036 -0.3075996 -4.03191305 -0.53758841 0 0 Z " fill="#649BF5" transform="translate(1017,176)"/>
<path d="M0 0 C0.66 0 1.32 0 2 0 C2 0.66 2 1.32 2 2 C4.91707716 3.05014778 6.46640599 2.92762666 9.625 2.4375 C11.295625 2.2209375 11.295625 2.2209375 13 2 C15 4 15 4 15.25 6.5 C15 9 15 9 13 11 C10.66327016 10.6913753 8.33006911 10.35543427 6 10 C4.32546201 10.291224 2.65449105 10.61070799 1 11 C0 10 0 10 -0.0625 6.9375 C-0.041875 5.968125 -0.02125 4.99875 0 4 C-0.66 4 -1.32 4 -2 4 C-2 3.34 -2 2.68 -2 2 C-1.34 2 -0.68 2 0 2 C0 1.34 0 0.68 0 0 Z " fill="#878D91" transform="translate(977,97)"/>
<path d="M0 0 C1.65 0 3.3 0 5 0 C5.99 1.0209375 5.99 1.0209375 7 2.0625 C7.99 3.0215625 7.99 3.0215625 9 4 C11.60280568 3.67958603 11.60280568 3.67958603 14 3 C14.66 3.66 15.32 4.32 16 5 C15.625 7.125 15.625 7.125 15 9 C12.625 9.625 12.625 9.625 10 10 C9.34 9.34 8.68 8.68 8 8 C7.01 8.66 6.02 9.32 5 10 C3.35 10 1.7 10 0 10 C0 6.7 0 3.4 0 0 Z " fill="#A1A0AD" transform="translate(915,435)"/>
<path d="M0 0 C1.66666667 0.33333333 3.33333333 0.66666667 5 1 C5.33 0.67 5.66 0.34 6 0 C9.5 -0.125 9.5 -0.125 13 0 C14 1 14 1 14.0625 3.5625 C14.041875 4.366875 14.02125 5.17125 14 6 C12.35 6.33 10.7 6.66 9 7 C9 7.99 9 8.98 9 10 C8.01 10 7.02 10 6 10 C5.67 8.68 5.34 7.36 5 6 C4.21625 6.20625 3.4325 6.4125 2.625 6.625 C1.75875 6.74875 0.8925 6.8725 0 7 C-0.66 6.34 -1.32 5.68 -2 5 C-1.46428571 1.46428571 -1.46428571 1.46428571 0 0 Z " fill="#F49050" transform="translate(990,513)"/>
<path d="M0 0 C0.99 0 1.98 0 3 0 C3.33 1.32 3.66 2.64 4 4 C4.99 3.67 5.98 3.34 7 3 C7.33 2.01 7.66 1.02 8 0 C8.66 0 9.32 0 10 0 C10 2.31 10 4.62 10 7 C9.01 6.67 8.02 6.34 7 6 C7 7.32 7 8.64 7 10 C5.68 10 4.36 10 3 10 C2.30519531 10.01160156 1.61039063 10.02320313 0.89453125 10.03515625 C-1.07017802 10.06095919 -3.03538528 10.0322068 -5 10 C-6 9 -6 9 -6.125 6.5 C-6 4 -6 4 -5 3 C-3.33382885 2.95936168 -1.66611905 2.957279 0 3 C0 2.01 0 1.02 0 0 Z " fill="#9C99AA" transform="translate(967,121)"/>
<path d="M0 0 C0.05391993 1.79133978 0.09275571 3.58313899 0.125 5.375 C0.14820313 6.37273437 0.17140625 7.37046875 0.1953125 8.3984375 C0 11 0 11 -2 13 C-5.125 13.125 -5.125 13.125 -8 13 C-8 12.34 -8 11.68 -8 11 C-6.35 11 -4.7 11 -3 11 C-3 10.34 -3 9.68 -3 9 C-3.969375 8.855625 -4.93875 8.71125 -5.9375 8.5625 C-9 8 -9 8 -10 7 C-10.25 4.5625 -10.25 4.5625 -10 2 C-6.3558226 -0.4294516 -4.28758728 -0.16179575 0 0 Z " fill="#59565A" transform="translate(937,99)"/>
<path d="M0 0 C0.66 0 1.32 0 2 0 C2 3.3 2 6.6 2 10 C-8.5 10 -8.5 10 -13 9 C-13.625 7.125 -13.625 7.125 -14 5 C-13.34 4.34 -12.68 3.68 -12 3 C-9.99650739 3.31165441 -7.99673484 3.64763503 -6 4 C-3.23135047 3.63141012 -3.23135047 3.63141012 -1 3 C-0.67 2.01 -0.34 1.02 0 0 Z " fill="#F38A47" transform="translate(1067,510)"/>
<path d="M0 0 C0.33 0 0.66 0 1 0 C1.1079859 2.43868168 1.18726589 4.87259133 1.25 7.3125 C1.30027344 8.34793945 1.30027344 8.34793945 1.3515625 9.40429688 C1.41575174 12.7260898 1.43428527 14.51467694 -0.828125 17.04296875 C-3 18 -3 18 -6 17 C-7.80162669 14.47772264 -8.04839136 13.35487 -7.625 10.25 C-7.41875 9.5075 -7.2125 8.765 -7 8 C-6.01 7.67 -5.02 7.34 -4 7 C-3.28272222 5.35448038 -2.61674772 3.68577711 -2 2 C-1.34 1.34 -0.68 0.68 0 0 Z " fill="#FEB7B7" transform="translate(287,254)"/>
<path d="M0 0 C6.0546875 -0.1953125 6.0546875 -0.1953125 8 0 C10 2 10 2 10.25 4.5 C10 7 10 7 8 9 C5.375 9.125 5.375 9.125 3 9 C3 10.32 3 11.64 3 13 C2.01 13 1.02 13 0 13 C0 8.71 0 4.42 0 0 Z " fill="#3F3139" transform="translate(1057,99)"/>
<path d="M0 0 C0.99 0 1.98 0 3 0 C3 4.29 3 8.58 3 13 C-3.0546875 13.1953125 -3.0546875 13.1953125 -5 13 C-7 11 -7 11 -7.25 8.5 C-7 6 -7 6 -5 4 C-3.68 4 -2.36 4 -1 4 C-0.67 2.68 -0.34 1.36 0 0 Z " fill="#27345B" transform="translate(1096,95)"/>
<path d="M0 0 C0.94875 0.04125 1.8975 0.0825 2.875 0.125 C2.875 0.785 2.875 1.445 2.875 2.125 C1.225 2.455 -0.425 2.785 -2.125 3.125 C-2.125 4.445 -2.125 5.765 -2.125 7.125 C-0.475 7.125 1.175 7.125 2.875 7.125 C3.205 6.135 3.535 5.145 3.875 4.125 C6.75 3.5 6.75 3.5 9.875 3.125 C10.535 3.785 11.195 4.445 11.875 5.125 C11.5 7.25 11.5 7.25 10.875 9.125 C6.125 10.125 6.125 10.125 3.875 10.125 C2.72 10.186875 1.565 10.24875 0.375 10.3125 C-0.78 10.250625 -1.935 10.18875 -3.125 10.125 C-5.27415785 6.90126323 -5.50786803 5.85796326 -5.125 2.125 C-3.125 0.125 -3.125 0.125 0 0 Z " fill="#D1DBDC" transform="translate(982.125,362.875)"/>
<path d="M0 0 C1.2684375 0.0309375 1.2684375 0.0309375 2.5625 0.0625 C3.2225 0.0625 3.8825 0.0625 4.5625 0.0625 C6.23215451 0.38052943 7.89928518 0.71234951 9.5625 1.0625 C10.1875 2.9375 10.1875 2.9375 10.5625 5.0625 C9.9025 5.7225 9.2425 6.3825 8.5625 7.0625 C6.88707024 6.77645102 5.21864657 6.44468767 3.5625 6.0625 C3.2325 6.3925 2.9025 6.7225 2.5625 7.0625 C0.125 7.25 0.125 7.25 -2.4375 7.0625 C-3.0975 6.4025 -3.7575 5.7425 -4.4375 5.0625 C-3.68476989 0.09448128 -3.68476989 0.09448128 0 0 Z " fill="#B7B6BD" transform="translate(1096.4375,123.9375)"/>
<path d="M0 0 C0.66 0 1.32 0 2 0 C2 3.96 2 7.92 2 12 C0.55625 11.87625 -0.8875 11.7525 -2.375 11.625 C-3.18710938 11.55539062 -3.99921875 11.48578125 -4.8359375 11.4140625 C-7 11 -7 11 -9 9 C-8.46428571 5.46428571 -8.46428571 5.46428571 -7 4 C-5.00041636 3.95919217 -2.99954746 3.95745644 -1 4 C-0.67 2.68 -0.34 1.36 0 0 Z " fill="#B3B2B9" transform="translate(1049,485)"/>
<path d="M0 0 C0 2.64 0 5.28 0 8 C-3.3 8 -6.6 8 -10 8 C-10 5.36 -10 2.72 -10 0 C-6.30581799 -1.231394 -3.7943739 -0.64432764 0 0 Z " fill="#474952" transform="translate(1032,100)"/>
<path d="M0 0 C1.4540625 0.0309375 1.4540625 0.0309375 2.9375 0.0625 C2.9375 1.0525 2.9375 2.0425 2.9375 3.0625 C1.6175 3.3925 0.2975 3.7225 -1.0625 4.0625 C0.5875 5.0525 2.2375 6.0425 3.9375 7.0625 C3.0625 11.9375 3.0625 11.9375 1.9375 13.0625 C-0.39547433 13.10342937 -2.72955225 13.10491723 -5.0625 13.0625 C-5.0625 12.0725 -5.0625 11.0825 -5.0625 10.0625 C-3.4125 10.0625 -1.7625 10.0625 -0.0625 10.0625 C-0.0625 9.4025 -0.0625 8.7425 -0.0625 8.0625 C-2.5375 7.0725 -2.5375 7.0725 -5.0625 6.0625 C-3.98897059 0.08140756 -3.98897059 0.08140756 0 0 Z " fill="#403C45" transform="translate(1004.0625,94.9375)"/>
<path d="M0 0 C0.66 0 1.32 0 2 0 C2.66 0.66 3.32 1.32 4 2 C4.33 1.34 4.66 0.68 5 0 C11.15234375 -0.09765625 11.15234375 -0.09765625 13 0 C14 1 14 1 14.125 3.5 C14 6 14 6 13 7 C10.5625 7.1875 10.5625 7.1875 8 7 C7.34 6.34 6.68 5.68 6 5 C4.515 7.475 4.515 7.475 3 10 C2.34 9.67 1.68 9.34 1 9 C0.5859375 6.93359375 0.5859375 6.93359375 0.375 4.4375 C0.30023437 3.61121094 0.22546875 2.78492188 0.1484375 1.93359375 C0.09945312 1.29550781 0.05046875 0.65742188 0 0 Z " fill="#9B9AAA" transform="translate(905,304)"/>
<path d="M0 0 C0.99 0 1.98 0 3 0 C3 0.99 3 1.98 3 3 C3.66 3 4.32 3 5 3 C5 3.66 5 4.32 5 5 C4.34 5 3.68 5 3 5 C3.66 7.31 4.32 9.62 5 12 C1.125 11.125 1.125 11.125 0 10 C-0.04063832 8.33382885 -0.042721 6.66611905 0 5 C-1.32 5.33 -2.64 5.66 -4 6 C-4 7.98 -4 9.96 -4 12 C-4.99 12 -5.98 12 -7 12 C-7 9.03 -7 6.06 -7 3 C-4.69 3 -2.38 3 0 3 C0 2.01 0 1.02 0 0 Z " fill="#3F3036" transform="translate(1041,96)"/>
<path d="M0 0 C2.875 -0.125 2.875 -0.125 6 0 C8 2 8 2 8.25 5 C8 8 8 8 6 10 C2.875 10.125 2.875 10.125 0 10 C0 6.7 0 3.4 0 0 Z " fill="#F3812C" transform="translate(952,510)"/>
<path d="M0 0 C0.9075 0.165 1.815 0.33 2.75 0.5 C5.91372977 0.98672766 7.94173339 0.80954116 11 0 C10.01 0.33 9.02 0.66 8 1 C8 1.66 8 2.32 8 3 C9.32 3.33 10.64 3.66 12 4 C11.67 4.99 11.34 5.98 11 7 C9.18757948 7.02687279 7.37504767 7.04633715 5.5625 7.0625 C4.55316406 7.07410156 3.54382813 7.08570313 2.50390625 7.09765625 C0 7 0 7 -1 6 C-1.125 3.5 -1.125 3.5 -1 1 C-0.67 0.67 -0.34 0.34 0 0 Z " fill="#BFC0C5" transform="translate(1006,304)"/>
<path d="M0 0 C0.66 0 1.32 0 2 0 C2.598125 0.94875 3.19625 1.8975 3.8125 2.875 C6.10464788 6.14949697 7.24180292 6.95605637 11 8 C9.375 10.0625 9.375 10.0625 7 12 C3.875 11.9375 3.875 11.9375 1 11 C-1.30441554 7.54337669 -1.25860135 6.05142119 -1 2 C-0.67 1.34 -0.34 0.68 0 0 Z " fill="#EDE4BB" transform="translate(1325,31)"/>
<path d="M0 0 C0.66 0 1.32 0 2 0 C2 0.99 2 1.98 2 3 C4.31 3 6.62 3 9 3 C9.33 3.66 9.66 4.32 10 5 C10.99 4.34 11.98 3.68 13 3 C12.44271087 6.34373475 11.64826111 9.03312999 10 12 C9.01 11.67 8.02 11.34 7 11 C7.66 11 8.32 11 9 11 C8.67 9.35 8.34 7.7 8 6 C7.01 7.485 7.01 7.485 6 9 C2.875 9.1875 2.875 9.1875 0 9 C0 6.03 0 3.06 0 0 Z " fill="#9B99A8" transform="translate(1008,486)"/>
<path d="M0 0 C1.4540625 0.0309375 1.4540625 0.0309375 2.9375 0.0625 C2.9375 1.0525 2.9375 2.0425 2.9375 3.0625 C1.6175 3.3925 0.2975 3.7225 -1.0625 4.0625 C-0.4025 4.454375 0.2575 4.84625 0.9375 5.25 C2.9375 7.0625 2.9375 7.0625 3.1875 9.75 C3.105 10.513125 3.0225 11.27625 2.9375 12.0625 C0.22870665 13.41689668 -2.07183268 13.12751451 -5.0625 13.0625 C-5.0625 12.0725 -5.0625 11.0825 -5.0625 10.0625 C-3.4125 10.0625 -1.7625 10.0625 -0.0625 10.0625 C-0.0625 9.4025 -0.0625 8.7425 -0.0625 8.0625 C-2.5375 7.0725 -2.5375 7.0725 -5.0625 6.0625 C-3.98897059 0.08140756 -3.98897059 0.08140756 0 0 Z " fill="#38333B" transform="translate(918.0625,94.9375)"/>
<path d="M0 0 C2.97 0 5.94 0 9 0 C9 3.3 9 6.6 9 10 C8.34 10 7.68 10 7 10 C6.67 8.68 6.34 7.36 6 6 C4.68 6 3.36 6 2 6 C2 7.32 2 8.64 2 10 C1.34 10 0.68 10 0 10 C0 6.7 0 3.4 0 0 Z " fill="#B3ADB3" transform="translate(983,121)"/>
<path d="M0 0 C0.99 0 1.98 0 3 0 C3 3.3 3 6.6 3 10 C1.02 10 -0.96 10 -3 10 C-5.125 3.25 -5.125 3.25 -4 1 C-3.01 1.33 -2.02 1.66 -1 2 C-0.67 1.34 -0.34 0.68 0 0 Z " fill="#9FA5A3" transform="translate(1007,363)"/>
<path d="M0 0 C1.2684375 0.0309375 1.2684375 0.0309375 2.5625 0.0625 C3.2225 0.0625 3.8825 0.0625 4.5625 0.0625 C5.90033393 0.37728446 7.23453709 0.70837656 8.5625 1.0625 C7.5725 1.3925 6.5825 1.7225 5.5625 2.0625 C5.5625 3.0525 5.5625 4.0425 5.5625 5.0625 C6.5525 5.7225 7.5425 6.3825 8.5625 7.0625 C6.75007948 7.08937279 4.93754767 7.10883715 3.125 7.125 C2.11566406 7.13660156 1.10632813 7.14820313 0.06640625 7.16015625 C-2.4375 7.0625 -2.4375 7.0625 -3.4375 6.0625 C-3.5625 3.5625 -3.5625 3.5625 -3.4375 1.0625 C-2.4375 0.0625 -2.4375 0.0625 0 0 Z " fill="#B5B2B9" transform="translate(1017.4375,437.9375)"/>
<path d="M0 0 C1.134375 0.020625 2.26875 0.04125 3.4375 0.0625 C3.4375 1.7125 3.4375 3.3625 3.4375 5.0625 C4.4275 5.0625 5.4175 5.0625 6.4375 5.0625 C6.4375 3.4125 6.4375 1.7625 6.4375 0.0625 C7.0975 0.0625 7.7575 0.0625 8.4375 0.0625 C8.4375 2.0425 8.4375 4.0225 8.4375 6.0625 C4.4775 6.0625 0.5175 6.0625 -3.5625 6.0625 C-3.8925 4.4125 -4.2225 2.7625 -4.5625 1.0625 C-3.5625 0.0625 -3.5625 0.0625 0 0 Z " fill="#ABA8B1" transform="translate(974.5625,488.9375)"/>
<path d="M0 0 C1.4540625 0.0309375 1.4540625 0.0309375 2.9375 0.0625 C2.96439216 1.54156892 2.98384621 3.02077483 3 4.5 C3.01160156 5.32371094 3.02320313 6.14742188 3.03515625 6.99609375 C2.9375 9.0625 2.9375 9.0625 1.9375 10.0625 C0.27132885 10.10313832 -1.39638095 10.105221 -3.0625 10.0625 C-3.25662181 8.58418779 -3.44262131 7.10480684 -3.625 5.625 C-3.72941406 4.80128906 -3.83382813 3.97757812 -3.94140625 3.12890625 C-3.98136719 2.44699219 -4.02132813 1.76507813 -4.0625 1.0625 C-3.0625 0.0625 -3.0625 0.0625 0 0 Z " fill="#6B5B5E" transform="translate(1082.0625,437.9375)"/>
<path d="M0 0 C3.375 -0.125 3.375 -0.125 7 0 C9 2 9 2 9.125 5.625 C9.08375 6.73875 9.0425 7.8525 9 9 C8.01 9 7.02 9 6 9 C6 7.02 6 5.04 6 3 C5.01 3 4.02 3 3 3 C3 4.98 3 6.96 3 9 C2.01 9 1.02 9 0 9 C0 6.03 0 3.06 0 0 Z " fill="#2D3E53" transform="translate(1079,99)"/>
<path d="M0 0 C3.375 -0.125 3.375 -0.125 7 0 C9 2 9 2 9.125 5.625 C9.08375 6.73875 9.0425 7.8525 9 9 C8.01 9 7.02 9 6 9 C6 7.02 6 5.04 6 3 C5.01 3 4.02 3 3 3 C3 4.98 3 6.96 3 9 C2.01 9 1.02 9 0 9 C0 6.03 0 3.06 0 0 Z " fill="#393447" transform="translate(960,99)"/>
<path d="M0 0 C3.375 -0.125 3.375 -0.125 7 0 C9 2 9 2 9.125 5.625 C9.08375 6.73875 9.0425 7.8525 9 9 C8.01 9 7.02 9 6 9 C6 7.02 6 5.04 6 3 C5.01 3 4.02 3 3 3 C3 4.98 3 6.96 3 9 C2.01 9 1.02 9 0 9 C0 6.03 0 3.06 0 0 Z " fill="#393447" transform="translate(939,99)"/>
<path d="M0 0 C2.5 0.25 2.5 0.25 4.5 2.25 C4.5 3.24 4.5 4.23 4.5 5.25 C2.85 5.58 1.2 5.91 -0.5 6.25 C0.82 6.58 2.14 6.91 3.5 7.25 C3.5 7.91 3.5 8.57 3.5 9.25 C0.625 9.375 0.625 9.375 -2.5 9.25 C-4.5 7.25 -4.5 7.25 -4.75 4.75 C-4.40058445 1.25584452 -3.49415548 0.34941555 0 0 Z " fill="#302F39" transform="translate(1104.5,98.75)"/>
<path d="M0 0 C2.5 0.25 2.5 0.25 4.5 2.25 C4.5 3.24 4.5 4.23 4.5 5.25 C2.85 5.58 1.2 5.91 -0.5 6.25 C0.82 6.58 2.14 6.91 3.5 7.25 C3.5 7.91 3.5 8.57 3.5 9.25 C0.625 9.375 0.625 9.375 -2.5 9.25 C-4.5 7.25 -4.5 7.25 -4.75 4.75 C-4.40058445 1.25584452 -3.49415548 0.34941555 0 0 Z " fill="#302F39" transform="translate(1072.5,98.75)"/>
<path d="M0 0 C1.4540625 0.0309375 1.4540625 0.0309375 2.9375 0.0625 C3.1328125 6.1171875 3.1328125 6.1171875 2.9375 8.0625 C2.2775 8.7225 1.6175 9.3825 0.9375 10.0625 C-1.1875 9.6875 -1.1875 9.6875 -3.0625 9.0625 C-2.0725 8.7325 -1.0825 8.4025 -0.0625 8.0625 C-1.7125 7.0725 -3.3625 6.0825 -5.0625 5.0625 C-3.9375 0.08035714 -3.9375 0.08035714 0 0 Z " fill="#AFB1BB" transform="translate(1042.0625,123.9375)"/>
<path d="M0 0 C2.875 -0.125 2.875 -0.125 6 0 C6.66 0.66 7.32 1.32 8 2 C7.625 4.125 7.625 4.125 7 6 C5.35 6.33 3.7 6.66 2 7 C2 7.99 2 8.98 2 10 C1.34 10 0.68 10 0 10 C0 6.7 0 3.4 0 0 Z " fill="#817A7C" transform="translate(1107,438)"/>
<path d="M0 0 C0.66 0 1.32 0 2 0 C2 3.3 2 6.6 2 10 C-0.875 10.125 -0.875 10.125 -4 10 C-4.66 9.34 -5.32 8.68 -6 8 C-5.625 5.875 -5.625 5.875 -5 4 C-3.35 3.67 -1.7 3.34 0 3 C0 2.01 0 1.02 0 0 Z " fill="#70727E" transform="translate(914,269)"/>
<path d="M0 0 C0.66 0.33 1.32 0.66 2 1 C1.67 1.99 1.34 2.98 1 4 C0.05125 3.95875 -0.8975 3.9175 -1.875 3.875 C-5.10244856 3.65026182 -5.10244856 3.65026182 -7 6 C-7.70710678 7.64991582 -8.37943989 9.31562256 -9 11 C-9.66 10.67 -10.32 10.34 -11 10 C-10.51644989 3.59296098 -10.51644989 3.59296098 -8.3125 1.0625 C-5.37084049 -0.28907329 -3.20371381 -0.27858381 0 0 Z " fill="#F0733B" transform="translate(1017,176)"/>
<path d="M0 0 C0.66 0 1.32 0 2 0 C2 3.3 2 6.6 2 10 C0.00045254 10.04254356 -2.00041636 10.04080783 -4 10 C-5 9 -5 9 -5.0625 6.4375 C-5.041875 5.633125 -5.02125 4.82875 -5 4 C-3.35 3.67 -1.7 3.34 0 3 C0 2.01 0 1.02 0 0 Z " fill="#B1B4BE" transform="translate(988,301)"/>
<path d="M0 0 C0.66 0 1.32 0 2 0 C2 3.3 2 6.6 2 10 C0.00045254 10.04254356 -2.00041636 10.04080783 -4 10 C-5 9 -5 9 -5.0625 6.4375 C-5.041875 5.633125 -5.02125 4.82875 -5 4 C-3.35 3.67 -1.7 3.34 0 3 C0 2.01 0 1.02 0 0 Z " fill="#5B4549" transform="translate(905,269)"/>
<path d="M0 0 C2.97 0 5.94 0 9 0 C8.67 1.98 8.34 3.96 8 6 C4.7 6 1.4 6 -2 6 C-1.34 5.67 -0.68 5.34 0 5 C0 3.35 0 1.7 0 0 Z " fill="#F5B4B5" transform="translate(200,443)"/>
<path d="M0 0 C2.33294775 -0.04241723 4.66702567 -0.04092937 7 0 C8 1 8 1 8.0625 4.5625 C8.041875 5.696875 8.02125 6.83125 8 8 C7.01 8 6.02 8 5 8 C5 6.02 5 4.04 5 2 C4.34 2 3.68 2 3 2 C3 3.98 3 5.96 3 8 C2.01 8 1.02 8 0 8 C0 5.36 0 2.72 0 0 Z " fill="#CEE0F3" transform="translate(1122,182)"/>
<path d="M0 0 C2 3 2 3 2 5 C2.66 5 3.32 5 4 5 C4.33 3.35 4.66 1.7 5 0 C5.66 0.33 6.32 0.66 7 1 C7.33 1.99 7.66 2.98 8 4 C8.99 2.68 9.98 1.36 11 0 C10.34 3.3 9.68 6.6 9 10 C8.34 10 7.68 10 7 10 C6.34 8.68 5.68 7.36 5 6 C4.67 7.32 4.34 8.64 4 10 C3.34 10 2.68 10 2 10 C0.39644899 6.49223216 -0.22036864 3.85645121 0 0 Z " fill="#9591A4" transform="translate(884,121)"/>
<path d="M0 0 C3.3 0 6.6 0 10 0 C10 2.31 10 4.62 10 7 C9.34 7 8.68 7 8 7 C8 5.35 8 3.7 8 2 C7.34 2 6.68 2 6 2 C6 3.65 6 5.3 6 7 C5.34 7 4.68 7 4 7 C4 5.35 4 3.7 4 2 C3.34 2 2.68 2 2 2 C2 3.65 2 5.3 2 7 C1.34 7 0.68 7 0 7 C0 4.69 0 2.38 0 0 Z " fill="#F48A34" transform="translate(1005,513)"/>
<path d="M0 0 C0.33 0 0.66 0 1 0 C1 3.3 1 6.6 1 10 C-0.99954746 10.04254356 -3.00041636 10.04080783 -5 10 C-6 9 -6 9 -6.125 6.5 C-6 4 -6 4 -5 3 C-3.33382885 2.95936168 -1.66611905 2.957279 0 3 C0 2.01 0 1.02 0 0 Z " fill="#CDCFD0" transform="translate(967,121)"/>
<path d="M0 0 C1.47906892 -0.02689216 2.95827483 -0.04634621 4.4375 -0.0625 C5.26121094 -0.07410156 6.08492187 -0.08570313 6.93359375 -0.09765625 C9 0 9 0 10 1 C10.04080783 2.99958364 10.04254356 5.00045254 10 7 C9.34 7 8.68 7 8 7 C8 5.35 8 3.7 8 2 C7.34 2 6.68 2 6 2 C6 3.65 6 5.3 6 7 C5.34 7 4.68 7 4 7 C4 5.35 4 3.7 4 2 C3.34 2 2.68 2 2 2 C2 3.65 2 5.3 2 7 C1.34 7 0.68 7 0 7 C0 4.69 0 2.38 0 0 Z " fill="#F37A2E" transform="translate(1042,513)"/>
<path d="M0 0 C1.98 0.495 1.98 0.495 4 1 C3.01 1 2.02 1 1 1 C1.99 1.99 2.98 2.98 4 4 C4.99 3.34 5.98 2.68 7 2 C9.6875 2.375 9.6875 2.375 12 3 C12 3.66 12 4.32 12 5 C10.68 5.33 9.36 5.66 8 6 C8.99 6.66 9.98 7.32 11 8 C10.030625 7.814375 9.06125 7.62875 8.0625 7.4375 C7.051875 7.293125 6.04125 7.14875 5 7 C4.67 7.33 4.34 7.66 4 8 C2.33382885 8.04063832 0.66611905 8.042721 -1 8 C0.32 7.67 1.64 7.34 3 7 C3 6.34 3 5.68 3 5 C1.68 4.67 0.36 4.34 -1 4 C-0.67 2.68 -0.34 1.36 0 0 Z " fill="#8B8A99" transform="translate(957,487)"/>
<path d="M0 0 C0.33 0 0.66 0 1 0 C1 3.3 1 6.6 1 10 C-0.98 10 -2.96 10 -5 10 C-5.33 8.02 -5.66 6.04 -6 4 C-4.35 3.67 -2.7 3.34 -1 3 C-0.67 2.01 -0.34 1.02 0 0 Z " fill="#B7AFB8" transform="translate(997,301)"/>
<path d="M0 0 C0.66 0 1.32 0 2 0 C2 0.66 2 1.32 2 2 C3.32 2 4.64 2 6 2 C6 4.31 6 6.62 6 9 C4.35 9 2.7 9 1 9 C-1.125 2.25 -1.125 2.25 0 0 Z " fill="#CDC9CF" transform="translate(1116,122)"/>
<path d="M0 0 C0.33 0.99 0.66 1.98 1 3 C2.65 3.33 4.3 3.66 6 4 C6.625 5.875 6.625 5.875 7 8 C6.34 8.66 5.68 9.32 5 10 C3.35 10 1.7 10 0 10 C0 6.7 0 3.4 0 0 Z " fill="#ACB0BB" transform="translate(946,121)"/>
<path d="M0 0 C1.65 0.33 3.3 0.66 5 1 C5.125 3.375 5.125 3.375 5 6 C4.34 6.66 3.68 7.32 3 8 C-0.625 7.625 -0.625 7.625 -4 7 C-4 5.35 -4 3.7 -4 2 C-3.34 1.67 -2.68 1.34 -2 1 C-2 2.32 -2 3.64 -2 5 C-0.68 5 0.64 5 2 5 C2 3.68 2 2.36 2 1 C1.34 0.67 0.68 0.34 0 0 Z " fill="#373240" transform="translate(987,100)"/>
<path d="M0 0 C2.625 0.375 2.625 0.375 5 1 C5.625 2.875 5.625 2.875 6 5 C5.34 5.66 4.68 6.32 4 7 C1.375 6.625 1.375 6.625 -1 6 C-1.625 4.125 -1.625 4.125 -2 2 C-1.34 1.34 -0.68 0.68 0 0 Z " fill="#B7B6BD" transform="translate(1010,230)"/>
<path d="M0 0 C2.625 0.375 2.625 0.375 5 1 C5.625 2.875 5.625 2.875 6 5 C5.34 5.66 4.68 6.32 4 7 C1.375 6.625 1.375 6.625 -1 6 C-1.625 4.125 -1.625 4.125 -2 2 C-1.34 1.34 -0.68 0.68 0 0 Z " fill="#B7B6BD" transform="translate(1081,124)"/>
<path d="M0 0 C0.33 0.99 0.66 1.98 1 3 C-0.423125 3.309375 -0.423125 3.309375 -1.875 3.625 C-5.29166667 4.70833333 -5.29166667 4.70833333 -6.375 8.125 C-6.58125 9.07375 -6.7875 10.0225 -7 11 C-9 9 -9 9 -9.375 6.625 C-9 4 -9 4 -7.3125 1.6875 C-4.60883753 -0.28544288 -3.27034459 -0.36337162 0 0 Z " fill="#B9B8BE" transform="translate(1036,484)"/>
<path d="M0 0 C2.97 0.495 2.97 0.495 6 1 C6 2.98 6 4.96 6 7 C4.02 7 2.04 7 0 7 C-0.93423645 3.98968256 -1.04449911 3.13349732 0 0 Z " fill="#ADAEB5" transform="translate(976,304)"/>
<path d="M0 0 C4.70588235 0.70588235 4.70588235 0.70588235 6 2 C6.04063832 3.66617115 6.042721 5.33388095 6 7 C3.69 6.67 1.38 6.34 -1 6 C-1.042721 4.33388095 -1.04063832 2.66617115 -1 1 C-0.67 0.67 -0.34 0.34 0 0 Z " fill="#B4B2BA" transform="translate(888,304)"/>
<path d="M0 0 C1.2065625 0.0309375 1.2065625 0.0309375 2.4375 0.0625 C2.4375 2.3725 2.4375 4.6825 2.4375 7.0625 C0.0625 7.1875 0.0625 7.1875 -2.5625 7.0625 C-3.2225 6.4025 -3.8825 5.7425 -4.5625 5.0625 C-3.80953264 0.09291543 -3.80953264 0.09291543 0 0 Z " fill="#C6C8CF" transform="translate(1096.5625,123.9375)"/>
<path d="M0 0 C4.70588235 0.70588235 4.70588235 0.70588235 6 2 C6.04063832 3.66617115 6.042721 5.33388095 6 7 C3.69 6.67 1.38 6.34 -1 6 C-1.042721 4.33388095 -1.04063832 2.66617115 -1 1 C-0.67 0.67 -0.34 0.34 0 0 Z " fill="#B4B2BA" transform="translate(1140,124)"/>
<path d="M0 0 C2.31 0 4.62 0 7 0 C7 2.31 7 4.62 7 7 C4.36 7 1.72 7 -1 7 C-0.67 6.34 -0.34 5.68 0 5 C0.66 5.33 1.32 5.66 2 6 C2 5.34 2 4.68 2 4 C1.01 3.67 0.02 3.34 -1 3 C-0.67 2.01 -0.34 1.02 0 0 Z " fill="#ABA7B2" transform="translate(1029,124)"/>
<path d="M0 0 C4.70588235 0.70588235 4.70588235 0.70588235 6 2 C6.04063832 3.66617115 6.042721 5.33388095 6 7 C3.69 6.67 1.38 6.34 -1 6 C-1.042721 4.33388095 -1.04063832 2.66617115 -1 1 C-0.67 0.67 -0.34 0.34 0 0 Z " fill="#B4B2BA" transform="translate(1016,124)"/>
<path d="M0 0 C1.67542976 0.28604898 3.34385343 0.61781233 5 1 C6.125 4.75 6.125 4.75 5 7 C3.33388095 7.042721 1.66617115 7.04063832 0 7 C-1 6 -1 6 -1.125 3.5 C-1 1 -1 1 0 0 Z " fill="#F38443" transform="translate(1071,513)"/>
<path d="M0 0 C1.67542976 0.28604898 3.34385343 0.61781233 5 1 C5 2.98 5 4.96 5 7 C2.625 7.125 2.625 7.125 0 7 C-0.66 6.34 -1.32 5.68 -2 5 C-1.46428571 1.46428571 -1.46428571 1.46428571 0 0 Z " fill="#F38646" transform="translate(1018,513)"/>
<path d="M0 0 C1.67542976 0.28604898 3.34385343 0.61781233 5 1 C6.125 4.75 6.125 4.75 5 7 C3.33388095 7.042721 1.66617115 7.04063832 0 7 C-1 6 -1 6 -1.125 3.5 C-1 1 -1 1 0 0 Z " fill="#F38544" transform="translate(978,513)"/>
<path d="M0 0 C0.66 0 1.32 0 2 0 C2.33 1.65 2.66 3.3 3 5 C3.99 5 4.98 5 6 5 C6.33 7.31 6.66 9.62 7 12 C6.01 11.67 5.02 11.34 4 11 C4 10.34 4 9.68 4 9 C3.34 9 2.68 9 2 9 C2 9.66 2 10.32 2 11 C1.34 11 0.68 11 0 11 C0 7.37 0 3.74 0 0 Z " fill="#8C8D99" transform="translate(1066,485)"/>
<path d="M0 0 C4.875 0.875 4.875 0.875 6 2 C6.04063832 3.66617115 6.042721 5.33388095 6 7 C4.02 7 2.04 7 0 7 C-0.93423645 3.98968256 -1.04449911 3.13349732 0 0 Z " fill="#96887D" transform="translate(893,272)"/>
<path d="M0 0 C1.67542976 0.28604898 3.34385343 0.61781233 5 1 C5 2.98 5 4.96 5 7 C2.625 7.125 2.625 7.125 0 7 C-0.66 6.34 -1.32 5.68 -2 5 C-1.46428571 1.46428571 -1.46428571 1.46428571 0 0 Z " fill="#F38545" transform="translate(963,513)"/>
<path d="M0 0 C1.67542976 0.28604898 3.34385343 0.61781233 5 1 C5.625 2.875 5.625 2.875 6 5 C5.34 5.66 4.68 6.32 4 7 C1.375 6.625 1.375 6.625 -1 6 C-1.042721 4.33388095 -1.04063832 2.66617115 -1 1 C-0.67 0.67 -0.34 0.34 0 0 Z " fill="#B0B2BB" transform="translate(1029,438)"/>
<path d="M0 0 C1.67542976 0.28604898 3.34385343 0.61781233 5 1 C5.625 2.875 5.625 2.875 6 5 C5.34 5.66 4.68 6.32 4 7 C1.375 6.625 1.375 6.625 -1 6 C-1.042721 4.33388095 -1.04063832 2.66617115 -1 1 C-0.67 0.67 -0.34 0.34 0 0 Z " fill="#C7C5C3" transform="translate(988,366)"/>
<path d="M0 0 C1.66611905 -0.042721 3.33382885 -0.04063832 5 0 C6 1 6 1 6.0625 4.0625 C6.041875 5.031875 6.02125 6.00125 6 7 C4.02 7 2.04 7 0 7 C0 4.69 0 2.38 0 0 Z " fill="#63646E" transform="translate(874,272)"/>
<path d="M0 0 C1.67542976 0.28604898 3.34385343 0.61781233 5 1 C5 2.65 5 4.3 5 6 C2.625 6.625 2.625 6.625 0 7 C-0.66 6.34 -1.32 5.68 -2 5 C-1.46428571 1.46428571 -1.46428571 1.46428571 0 0 Z " fill="#B4B4BE" transform="translate(915,124)"/>
<path d="M0 0 C5.28 0 10.56 0 16 0 C15.01 0.495 15.01 0.495 14 1 C14 1.66 14 2.32 14 3 C10.04 3 6.08 3 2 3 C2 2.34 2 1.68 2 1 C1.34 0.67 0.68 0.34 0 0 Z " fill="#403E5A" transform="translate(292,229)"/>
<path d="M0 0 C1.2065625 0.0309375 1.2065625 0.0309375 2.4375 0.0625 C3.37173645 3.07281744 3.48199911 3.92900268 2.4375 7.0625 C0.77138095 7.105221 -0.89632885 7.10313832 -2.5625 7.0625 C-3.5625 6.0625 -3.5625 6.0625 -3.6875 3.5625 C-3.51717518 0.15600356 -3.41884482 0.08338646 0 0 Z " fill="#DDDEDA" transform="translate(1030.5625,365.9375)"/>
<path d="M0 0 C0.804375 0.495 0.804375 0.495 1.625 1 C4.5391061 2.22699204 6.86867708 2.14233286 10 2 C10.33 2.99 10.66 3.98 11 5 C8.15916359 6.42041821 6.14522722 6.31452272 3 6 C0.625 4 0.625 4 -1 2 C-0.67 1.34 -0.34 0.68 0 0 Z " fill="#49B063" transform="translate(1008,186)"/>
<path d="M0 0 C1.65 0 3.3 0 5 0 C6 1 6 1 6.0625 3.5625 C6.041875 4.366875 6.02125 5.17125 6 6 C4.35 6.33 2.7 6.66 1 7 C0.67 7.99 0.34 8.98 0 10 C0 6.7 0 3.4 0 0 Z " fill="#F4976C" transform="translate(998,513)"/>
<path d="M0 0 C0.33 0 0.66 0 1 0 C1 2.97 1 5.94 1 9 C-0.65 9 -2.3 9 -4 9 C-4.33 7.35 -4.66 5.7 -5 4 C-3.35 3.67 -1.7 3.34 0 3 C0 2.01 0 1.02 0 0 Z " fill="#A09EA5" transform="translate(1001,486)"/>
<path d="M0 0 C1.65 0 3.3 0 5 0 C5 0.66 5 1.32 5 2 C3.68 2 2.36 2 1 2 C1 2.66 1 3.32 1 4 C2.32 4.33 3.64 4.66 5 5 C4.67 6.65 4.34 8.3 4 10 C2.35 10 0.7 10 -1 10 C-1 9.34 -1 8.68 -1 8 C0.32 8 1.64 8 3 8 C3 7.34 3 6.68 3 6 C1.68 5.34 0.36 4.68 -1 4 C-0.67 2.68 -0.34 1.36 0 0 Z " fill="#665C63" transform="translate(1068,435)"/>
<path d="M0 0 C0.66 0 1.32 0 2 0 C2 2.64 2 5.28 2 8 C-0.97 7.505 -0.97 7.505 -4 7 C-4.33 7.99 -4.66 8.98 -5 10 C-5.33 8.35 -5.66 6.7 -6 5 C-4.35 4.67 -2.7 4.34 -1 4 C-0.67 2.68 -0.34 1.36 0 0 Z " fill="#2D2126" transform="translate(1096,95)"/>
<path d="M0 0 C2.64 0.33 5.28 0.66 8 1 C7.6875 3.375 7.6875 3.375 7 6 C3.31282562 8.45811625 1.35654296 8.31118164 -3 8 C-3.99 7.34 -4.98 6.68 -6 6 C-5.67 5.34 -5.34 4.68 -5 4 C-3.515 4.99 -3.515 4.99 -2 6 C1.82748905 5.81767408 1.82748905 5.81767408 5 4 C4.175 3.525625 3.35 3.05125 2.5 2.5625 C1.675 2.046875 0.85 1.53125 0 1 C0 0.67 0 0.34 0 0 Z " fill="#353D45" transform="translate(1330,36)"/>
<path d="M0 0 C1.2065625 0.0309375 1.2065625 0.0309375 2.4375 0.0625 C2.7675 1.3825 3.0975 2.7025 3.4375 4.0625 C1.7875 4.0625 0.1375 4.0625 -1.5625 4.0625 C-1.5625 4.7225 -1.5625 5.3825 -1.5625 6.0625 C-0.2425 5.7325 1.0775 5.4025 2.4375 5.0625 C2.4375 5.7225 2.4375 6.3825 2.4375 7.0625 C0.77138095 7.105221 -0.89632885 7.10313832 -2.5625 7.0625 C-3.5625 6.0625 -3.5625 6.0625 -3.6875 3.5625 C-3.51717518 0.15600356 -3.41884482 0.08338646 0 0 Z " fill="#787A89" transform="translate(1055.5625,488.9375)"/>
<path d="M0 0 C2.475 0.495 2.475 0.495 5 1 C5 2.98 5 4.96 5 7 C3.35 7.33 1.7 7.66 0 8 C0 5.36 0 2.72 0 0 Z " fill="#E5ECEB" transform="translate(916,436)"/>
<path d="M0 0 C1.32 0 2.64 0 4 0 C4 3.3 4 6.6 4 10 C2.68 10 1.36 10 0 10 C0 7.69 0 5.38 0 3 C0.66 3 1.32 3 2 3 C2 2.34 2 1.68 2 1 C1.34 0.67 0.68 0.34 0 0 Z " fill="#B2AEB7" transform="translate(965,301)"/>
<path d="M0 0 C0.99 0 1.98 0 3 0 C3 0.66 3 1.32 3 2 C3.99 2 4.98 2 6 2 C6 4.31 6 6.62 6 9 C5.67 9 5.34 9 5 9 C5 7.02 5 5.04 5 3 C4.34 3 3.68 3 3 3 C3 4.98 3 6.96 3 9 C2.01 9 1.02 9 0 9 C0 6.03 0 3.06 0 0 Z " fill="#634540" transform="translate(1009,99)"/>
<path d="M0 0 C0.66 0 1.32 0 2 0 C2 0.66 2 1.32 2 2 C2.66 2 3.32 2 4 2 C4 2.66 4 3.32 4 4 C3.34 4 2.68 4 2 4 C2.34786708 5.97536745 2.34786708 5.97536745 3 8 C3.66 8.33 4.32 8.66 5 9 C5 9.66 5 10.32 5 11 C3.35 10.67 1.7 10.34 0 10 C0 8.02 0 6.04 0 4 C-0.66 4 -1.32 4 -2 4 C-2 3.34 -2 2.68 -2 2 C-1.34 2 -0.68 2 0 2 C0 1.34 0 0.68 0 0 Z " fill="#2E2A2F" transform="translate(977,97)"/>
<path d="M0 0 C1.65 0.33 3.3 0.66 5 1 C5 2.98 5 4.96 5 7 C3.02 7 1.04 7 -1 7 C-0.67 4.69 -0.34 2.38 0 0 Z " fill="#9BA1B0" transform="translate(1008,438)"/>
<path d="M0 0 C1.65 0.33 3.3 0.66 5 1 C5 2.98 5 4.96 5 7 C3.02 7 1.04 7 -1 7 C-0.67 4.69 -0.34 2.38 0 0 Z " fill="#9BA1B0" transform="translate(988,438)"/>
<path d="M0 0 C1.65 0.33 3.3 0.66 5 1 C5 2.98 5 4.96 5 7 C3.02 7 1.04 7 -1 7 C-0.67 4.69 -0.34 2.38 0 0 Z " fill="#9DA4B2" transform="translate(1003,124)"/>
<path d="M0 0 C1.65 0.33 3.3 0.66 5 1 C5 2.98 5 4.96 5 7 C3.02 7 1.04 7 -1 7 C-0.67 4.69 -0.34 2.38 0 0 Z " fill="#9DA4B2" transform="translate(955,124)"/>
<path d="M0 0 C1.98 0 3.96 0 6 0 C5.67 0.99 5.34 1.98 5 3 C4.34 3 3.68 3 3 3 C3 4.98 3 6.96 3 9 C2.01 9 1.02 9 0 9 C0 6.03 0 3.06 0 0 Z " fill="#29394F" transform="translate(1111,99)"/>
<path d="M0 0 C0.66 0 1.32 0 2 0 C2 3.3 2 6.6 2 10 C0.02 9.34 -1.96 8.68 -4 8 C-4 7.01 -4 6.02 -4 5 C-3.01 4.67 -2.02 4.34 -1 4 C-0.26676204 1.98491642 -0.26676204 1.98491642 0 0 Z " fill="#F39676" transform="translate(1067,510)"/>
<path d="M0 0 C1.65 0.33 3.3 0.66 5 1 C5 2.98 5 4.96 5 7 C3.35 7 1.7 7 0 7 C-0.93423645 3.98968256 -1.04449911 3.13349732 0 0 Z " fill="#9E9BA9" transform="translate(961,438)"/>
<path d="M0 0 C1.65 0.33 3.3 0.66 5 1 C5 2.98 5 4.96 5 7 C3.35 7 1.7 7 0 7 C-0.93423645 3.98968256 -1.04449911 3.13349732 0 0 Z " fill="#A09DAB" transform="translate(958,304)"/>
<path d="M0 0 C1.98 0 3.96 0 6 0 C5.67 0.99 5.34 1.98 5 3 C4.34 3 3.68 3 3 3 C3 4.98 3 6.96 3 9 C2.01 9 1.02 9 0 9 C0 6.03 0 3.06 0 0 Z " fill="#2F2C44" transform="translate(1034,99)"/>
<path d="M0 0 C1.99954746 -0.04254356 4.00041636 -0.04080783 6 0 C7 1 7 1 7.0625 4.0625 C7.041875 5.031875 7.02125 6.00125 7 7 C6.34 7 5.68 7 5 7 C5 5.35 5 3.7 5 2 C4.01 2 3.02 2 2 2 C2 3.65 2 5.3 2 7 C1.34 7 0.68 7 0 7 C0 4.69 0 2.38 0 0 Z " fill="#F4872E" transform="translate(1024,513)"/>
<path d="M0 0 C0.66 0 1.32 0 2 0 C2 1.65 2 3.3 2 5 C2.99 5 3.98 5 5 5 C5 3.35 5 1.7 5 0 C5.66 0 6.32 0 7 0 C7 2.31 7 4.62 7 7 C5.00045254 7.04254356 2.99958364 7.04080783 1 7 C0 6 0 6 -0.0625 2.9375 C-0.041875 1.968125 -0.02125 0.99875 0 0 Z " fill="#EBE6D6" transform="translate(1019,366)"/>
<path d="M0 0 C1.99954746 -0.04254356 4.00041636 -0.04080783 6 0 C7 1 7 1 7.0625 4.0625 C7.041875 5.031875 7.02125 6.00125 7 7 C6.34 7 5.68 7 5 7 C5 5.35 5 3.7 5 2 C4.01 2 3.02 2 2 2 C2 3.65 2 5.3 2 7 C1.34 7 0.68 7 0 7 C0 4.69 0 2.38 0 0 Z " fill="#E4ECE6" transform="translate(1011,366)"/>
<path d="M0 0 C0 0.66 0 1.32 0 2 C-0.99 2.495 -0.99 2.495 -2 3 C-2 3.99 -2 4.98 -2 6 C-1.34 6.33 -0.68 6.66 0 7 C0 7.66 0 8.32 0 9 C-4.875 8.125 -4.875 8.125 -6 7 C-6.25 4.5625 -6.25 4.5625 -6 2 C-3 0 -3 0 0 0 Z " fill="#46362C" transform="translate(933,99)"/>
<path d="M0 0 C2.64 0 5.28 0 8 0 C8 0.66 8 1.32 8 2 C9.98 2 11.96 2 14 2 C14 2.33 14 2.66 14 3 C8.72 3 3.44 3 -2 3 C-1.34 2.67 -0.68 2.34 0 2 C0 1.34 0 0.68 0 0 Z " fill="#E8B5B7" transform="translate(239,446)"/>
<path d="M0 0 C1.67542976 0.28604898 3.34385343 0.61781233 5 1 C5.33 1.99 5.66 2.98 6 4 C4.35 4.33 2.7 4.66 1 5 C2.32 5.66 3.64 6.32 5 7 C3.33388095 7.042721 1.66617115 7.04063832 0 7 C-1 6 -1 6 -1.125 3.5 C-1 1 -1 1 0 0 Z " fill="#9E9BA6" transform="translate(975,438)"/>
<path d="M0 0 C1.98 0 3.96 0 6 0 C6 2.31 6 4.62 6 7 C5.34 7 4.68 7 4 7 C4 5.35 4 3.7 4 2 C3.34 2 2.68 2 2 2 C2 3.65 2 5.3 2 7 C1.34 7 0.68 7 0 7 C0 4.69 0 2.38 0 0 Z " fill="#E3E7E0" transform="translate(995,366)"/>
<path d="M0 0 C1.67542976 0.28604898 3.34385343 0.61781233 5 1 C5.33 1.99 5.66 2.98 6 4 C4.35 4.33 2.7 4.66 1 5 C2.32 5.66 3.64 6.32 5 7 C3.33388095 7.042721 1.66617115 7.04063832 0 7 C-1 6 -1 6 -1.125 3.5 C-1 1 -1 1 0 0 Z " fill="#A19DA8" transform="translate(939,304)"/>
<path d="M0 0 C2.625 0.375 2.625 0.375 5 1 C5 1.99 5 2.98 5 4 C3.68 4.33 2.36 4.66 1 5 C1.99 5.66 2.98 6.32 4 7 C2.35 6.67 0.7 6.34 -1 6 C-1.625 4.125 -1.625 4.125 -2 2 C-1.34 1.34 -0.68 0.68 0 0 Z " fill="#A19EA8" transform="translate(897,124)"/>
<path d="M0 0 C0.66 0 1.32 0 2 0 C2 1.98 2 3.96 2 6 C2.66 5.67 3.32 5.34 4 5 C4.65555119 2.47266765 4.65555119 2.47266765 5 0 C5.66 0 6.32 0 7 0 C7 2.31 7 4.62 7 7 C5.00045254 7.04254356 2.99958364 7.04080783 1 7 C0 6 0 6 -0.0625 2.9375 C-0.041875 1.968125 -0.02125 0.99875 0 0 Z " fill="#5B566C" transform="translate(1099,438)"/>
<path d="M0 0 C1.99954746 -0.04254356 4.00041636 -0.04080783 6 0 C7 1 7 1 7.0625 4.0625 C7.041875 5.031875 7.02125 6.00125 7 7 C6.34 7 5.68 7 5 7 C5 5.02 5 3.04 5 1 C4.01 1.495 4.01 1.495 3 2 C2.34444881 4.52733235 2.34444881 4.52733235 2 7 C1.34 7 0.68 7 0 7 C0 4.69 0 2.38 0 0 Z " fill="#9A9AA9" transform="translate(994,438)"/>
<path d="M0 0 C0.66 0 1.32 0 2 0 C2 1.98 2 3.96 2 6 C2.66 5.67 3.32 5.34 4 5 C4.65555119 2.47266765 4.65555119 2.47266765 5 0 C5.66 0 6.32 0 7 0 C7 2.31 7 4.62 7 7 C5.00045254 7.04254356 2.99958364 7.04080783 1 7 C0 6 0 6 -0.0625 2.9375 C-0.041875 1.968125 -0.02125 0.99875 0 0 Z " fill="#9C9CAA" transform="translate(920,304)"/>
<path d="M0 0 C1.98 0 3.96 0 6 0 C4.68 0.33 3.36 0.66 2 1 C2 1.99 2 2.98 2 4 C2.99 4.33 3.98 4.66 5 5 C4.01 5 3.02 5 2 5 C2 6.32 2 7.64 2 9 C3.32 9.33 4.64 9.66 6 10 C4.02 10 2.04 10 0 10 C0 6.7 0 3.4 0 0 Z " fill="#918C95" transform="translate(867,301)"/>
<path d="M0 0 C1.98 0 3.96 0 6 0 C4.68 0.33 3.36 0.66 2 1 C2 1.99 2 2.98 2 4 C2.99 4.33 3.98 4.66 5 5 C4.01 5 3.02 5 2 5 C2 6.32 2 7.64 2 9 C3.32 9.33 4.64 9.66 6 10 C4.02 10 2.04 10 0 10 C0 6.7 0 3.4 0 0 Z " fill="#533B35" transform="translate(855,269)"/>
<path d="M0 0 C1.99954746 -0.04254356 4.00041636 -0.04080783 6 0 C7 1 7 1 7.0625 4.0625 C7.041875 5.031875 7.02125 6.00125 7 7 C6.34 7 5.68 7 5 7 C5 5.02 5 3.04 5 1 C4.01 1.495 4.01 1.495 3 2 C2.34444881 4.52733235 2.34444881 4.52733235 2 7 C1.34 7 0.68 7 0 7 C0 4.69 0 2.38 0 0 Z " fill="#9C9CAB" transform="translate(1046,124)"/>
<path d="M0 0 C1.65 0 3.3 0 5 0 C6.125 3.75 6.125 3.75 5 6 C3.35 6 1.7 6 0 6 C0 4.02 0 2.04 0 0 Z " fill="#818181" transform="translate(1060,99)"/>
<path d="M0 0 C1.67542976 0.28604898 3.34385343 0.61781233 5 1 C5 1.99 5 2.98 5 4 C3.68 4.33 2.36 4.66 1 5 C2.32 5.66 3.64 6.32 5 7 C3.33388095 7.042721 1.66617115 7.04063832 0 7 C-1 6 -1 6 -1.125 3.5 C-1 1 -1 1 0 0 Z " fill="#9B9CA9" transform="translate(1006,304)"/>
<path d="M0 0 C0.66 0 1.32 0 2 0 C2.33 1.65 2.66 3.3 3 5 C3.33 3.35 3.66 1.7 4 0 C4.66 0 5.32 0 6 0 C6 2.31 6 4.62 6 7 C4.33388095 7.042721 2.66617115 7.04063832 1 7 C0 6 0 6 -0.0625 2.9375 C-0.041875 1.968125 -0.02125 0.99875 0 0 Z " fill="#9FA4B4" transform="translate(1132,124)"/>
<path d="M0 0 C1.67542976 0.28604898 3.34385343 0.61781233 5 1 C5 1.99 5 2.98 5 4 C3.68 4.33 2.36 4.66 1 5 C2.32 5.66 3.64 6.32 5 7 C3.33388095 7.042721 1.66617115 7.04063832 0 7 C-1 6 -1 6 -1.125 3.5 C-1 1 -1 1 0 0 Z " fill="#9B9CA9" transform="translate(995,124)"/>
<path d="M0 0 C1.67542976 0.28604898 3.34385343 0.61781233 5 1 C5 1.99 5 2.98 5 4 C3.68 4.33 2.36 4.66 1 5 C2.32 5.66 3.64 6.32 5 7 C3.33388095 7.042721 1.66617115 7.04063832 0 7 C-1 6 -1 6 -1.125 3.5 C-1 1 -1 1 0 0 Z " fill="#9B9CA9" transform="translate(934,124)"/>
<path d="M0 0 C1.65 0 3.3 0 5 0 C5.33 0.99 5.66 1.98 6 3 C4.68 3.33 3.36 3.66 2 4 C2.99 4.66 3.98 5.32 5 6 C2.03 5.505 2.03 5.505 -1 5 C-0.67 3.35 -0.34 1.7 0 0 Z " fill="#97959E" transform="translate(989,489)"/>
<path d="M0 0 C0.66 0.66 1.32 1.32 2 2 C1.625 4.625 1.625 4.625 1 7 C-1.475 6.01 -1.475 6.01 -4 5 C-3.6875 3.0625 -3.6875 3.0625 -3 1 C-2.01 0.67 -1.02 0.34 0 0 Z " fill="#E1E5E5" transform="translate(1026,438)"/>
<path d="M0 0 C2.03833424 1.2739589 4.03852126 2.61061923 6 4 C6 4.66 6 5.32 6 6 C3.36 6 0.72 6 -2 6 C-2 4.68 -2 3.36 -2 2 C-1.34 2 -0.68 2 0 2 C0 1.34 0 0.68 0 0 Z " fill="#E1EDF0" transform="translate(1046,99)"/>
<path d="M0 0 C2.125 0.9375 2.125 0.9375 4 2 C4 4.31 4 6.62 4 9 C3.01 9 2.02 9 1 9 C1 6.69 1 4.38 1 2 C0.01 1.67 -0.98 1.34 -2 1 C-1.34 0.67 -0.68 0.34 0 0 Z " fill="#292C45" transform="translate(965,99)"/>
<path d="M0 0 C2.125 0.9375 2.125 0.9375 4 2 C4 4.31 4 6.62 4 9 C3.01 9 2.02 9 1 9 C1 6.69 1 4.38 1 2 C0.01 1.67 -0.98 1.34 -2 1 C-1.34 0.67 -0.68 0.34 0 0 Z " fill="#292C45" transform="translate(944,99)"/>
<path d="M0 0 C1.32 0.33 2.64 0.66 4 1 C3.67 3.64 3.34 6.28 3 9 C2.01 9 1.02 9 0 9 C0 6.03 0 3.06 0 0 Z " fill="#213349" transform="translate(1079,99)"/>
<path d="M0 0 C0.99 1.485 0.99 1.485 2 3 C2.33 2.34 2.66 1.68 3 1 C4.32 1 5.64 1 7 1 C6.75 2.875 6.75 2.875 6 5 C3.9375 6.25 3.9375 6.25 2 7 C0 5 0 5 -0.125 2.375 C-0.08375 1.59125 -0.0425 0.8075 0 0 Z " fill="#958A83" transform="translate(1089,101)"/>
<path d="M0 0 C0.99 0 1.98 0 3 0 C3 2.97 3 5.94 3 9 C2.01 9 1.02 9 0 9 C0 6.03 0 3.06 0 0 Z " fill="#492F34" transform="translate(955,99)"/>
<path d="M0 0 C0.99 0 1.98 0 3 0 C3 2.97 3 5.94 3 9 C2.01 9 1.02 9 0 9 C0 6.03 0 3.06 0 0 Z " fill="#2F2F4D" transform="translate(923,99)"/>
<path d="M0 0 C1.66611905 -0.042721 3.33382885 -0.04063832 5 0 C6 1 6 1 6.0625 4.0625 C6.041875 5.031875 6.02125 6.00125 6 7 C5.34 7 4.68 7 4 7 C4 5.35 4 3.7 4 2 C3.01 2 2.02 2 1 2 C1 3.65 1 5.3 1 7 C0.67 7 0.34 7 0 7 C0 4.69 0 2.38 0 0 Z " fill="#594E58" transform="translate(1087,438)"/>
<path d="M0 0 C0.66 0 1.32 0 2 0 C2.93423645 3.01031744 3.04449911 3.86650268 2 7 C2.66 7 3.32 7 4 7 C4 7.66 4 8.32 4 9 C2.68 8.67 1.36 8.34 0 8 C-1.125 2.25 -1.125 2.25 0 0 Z " fill="#F37438" transform="translate(1033,511)"/>
<path d="M0 0 C0.66 0 1.32 0 2 0 C2.93423645 3.01031744 3.04449911 3.86650268 2 7 C2.66 7 3.32 7 4 7 C4 7.66 4 8.32 4 9 C2.68 8.67 1.36 8.34 0 8 C-1.125 2.25 -1.125 2.25 0 0 Z " fill="#E1E8E4" transform="translate(1003,364)"/>
<path d="M0 0 C1.32 0 2.64 0 4 0 C4 4 4 4 3 7 C1.68 7 0.36 7 -1 7 C-1 3 -1 3 0 0 Z " fill="#554E59" transform="translate(937,272)"/>
<path d="M0 0 C1.98 0 3.96 0 6 0 C6 2.31 6 4.62 6 7 C5.67 7 5.34 7 5 7 C5 5.02 5 3.04 5 1 C4.01 1.495 4.01 1.495 3 2 C2.34444881 4.52733235 2.34444881 4.52733235 2 7 C1.34 7 0.68 7 0 7 C0 4.69 0 2.38 0 0 Z " fill="#9992A4" transform="translate(1062,124)"/>
<path d="M0 0 C0.98120464 3.05263664 0.98120464 4.94736336 0 8 C-1.32 8 -2.64 8 -4 8 C-4 6.35 -4 4.7 -4 3 C-2.68 3 -1.36 3 0 3 C0 2.01 0 1.02 0 0 Z " fill="#A4A3A1" transform="translate(905,269)"/>
<path d="M0 0 C0.99 0 1.98 0 3 0 C3 2.64 3 5.28 3 8 C2.01 8 1.02 8 0 8 C0 5.36 0 2.72 0 0 Z " fill="#C6DBF0" transform="translate(1118,182)"/>
<path d="M0 0 C0.33 0 0.66 0 1 0 C1 3.3 1 6.6 1 10 C0.34 8.68 -0.32 7.36 -1 6 C-2.29470975 4.62913085 -3.62150897 3.28659163 -5 2 C-4.01 1.67 -3.02 1.34 -2 1 C-1.34 1.33 -0.68 1.66 0 2 C0 1.34 0 0.68 0 0 Z " fill="#C9E1F0" transform="translate(921,96)"/>
<path d="M0 0 C1.32 0 2.64 0 4 0 C4 1.65 4 3.3 4 5 C2.68 5.33 1.36 5.66 0 6 C0 4.02 0 2.04 0 0 Z " fill="#F6DADA" transform="translate(954,512)"/>
<path d="M0 0 C0 1.98 0 3.96 0 6 C-1.65 5.67 -3.3 5.34 -5 5 C-5 3.68 -5 2.36 -5 1 C-2 0 -2 0 0 0 Z " fill="#D4E6EE" transform="translate(862,273)"/>
<path d="M0 0 C0.66 0 1.32 0 2 0 C2.66 0.66 3.32 1.32 4 2 C4.33 1.34 4.66 0.68 5 0 C5.66 0.33 6.32 0.66 7 1 C6.01 2.98 5.02 4.96 4 7 C3.34 7 2.68 7 2 7 C1.34 4.69 0.68 2.38 0 0 Z " fill="#F3823A" transform="translate(969,513)"/>
<path d="M0 0 C0.5775 0.639375 1.155 1.27875 1.75 1.9375 C3.98062401 3.98223868 5.07436391 4.58205199 8 5 C8 5.66 8 6.32 8 7 C5.125 7.125 5.125 7.125 2 7 C0 5 0 5 -0.125 2.375 C-0.08375 1.59125 -0.0425 0.8075 0 0 Z " fill="#483330" transform="translate(1100,101)"/>
<path d="M0 0 C0.5775 0.639375 1.155 1.27875 1.75 1.9375 C3.98062401 3.98223868 5.07436391 4.58205199 8 5 C8 5.66 8 6.32 8 7 C5.125 7.125 5.125 7.125 2 7 C0 5 0 5 -0.125 2.375 C-0.08375 1.59125 -0.0425 0.8075 0 0 Z " fill="#483330" transform="translate(1068,101)"/>
<path d="M0 0 C1.65 0 3.3 0 5 0 C4.67 0.66 4.34 1.32 4 2 C3.34 2 2.68 2 2 2 C2 3.98 2 5.96 2 8 C1.34 8 0.68 8 0 8 C0 5.36 0 2.72 0 0 Z " fill="#8F8F9B" transform="translate(1060,489)"/>
<path d="M0 0 C0.66 0 1.32 0 2 0 C3.09658936 3.28976808 2.79953138 4.71303767 2 8 C2.66 8.33 3.32 8.66 4 9 C2.68 8.67 1.36 8.34 0 8 C-1.125 2.25 -1.125 2.25 0 0 Z " fill="#96949F" transform="translate(943,436)"/>
<path d="M0 0 C1.65 0 3.3 0 5 0 C4.67 1.65 4.34 3.3 4 5 C2.68 5 1.36 5 0 5 C0 3.35 0 1.7 0 0 Z " fill="#9FA8B1" transform="translate(1079,438)"/>
<path d="M0 0 C0.99 0.33 1.98 0.66 3 1 C2.34 1 1.68 1 1 1 C1 1.66 1 2.32 1 3 C1.99 3.33 2.98 3.66 4 4 C3.67 4.99 3.34 5.98 3 7 C1.68 7 0.36 7 -1 7 C-1 3 -1 3 0 0 Z " fill="#4B4149" transform="translate(931,272)"/>
<path d="M0 0 C3.875 0.875 3.875 0.875 5 2 C5.04063832 3.66617115 5.042721 5.33388095 5 7 C4.01 7 3.02 7 2 7 C2 6.01 2 5.02 2 4 C1.34 3.34 0.68 2.68 0 2 C0 1.34 0 0.68 0 0 Z " fill="#3D4656" transform="translate(894,272)"/>
<path d="M0 0 C1.65 0 3.3 0 5 0 C6.33332095 2.6666419 5.67102033 4.16680303 5 7 C4.67 7 4.34 7 4 7 C4 5.35 4 3.7 4 2 C3.01 2 2.02 2 1 2 C1 3.65 1 5.3 1 7 C0.67 7 0.34 7 0 7 C0 4.69 0 2.38 0 0 Z " fill="#3E374B" transform="translate(863,272)"/>
<path d="M0 0 C0.66 0 1.32 0 2 0 C2 2.31 2 4.62 2 7 C1.01 6.67 0.02 6.34 -1 6 C-1.66 6.66 -2.32 7.32 -3 8 C-3 7.01 -3 6.02 -3 5 C-2.01 4.67 -1.02 4.34 0 4 C0 2.68 0 1.36 0 0 Z " fill="#C1BDC4" transform="translate(975,121)"/>
<path d="M0 0 C2 2 2 2 2.125 4.625 C2.08375 5.40875 2.0425 6.1925 2 7 C0.68 6.67 -0.64 6.34 -2 6 C-2 4.68 -2 3.36 -2 2 C-1.34 2 -0.68 2 0 2 C0 1.34 0 0.68 0 0 Z " fill="#AFB7BD" transform="translate(981,99)"/>
<path d="M0 0 C0.66 0 1.32 0 2 0 C3.06546953 3.1964086 3.07427838 5.65747276 3 9 C2.01 8.67 1.02 8.34 0 8 C-1.125 2.25 -1.125 2.25 0 0 Z " fill="#9391A5" transform="translate(1052,436)"/>
<path d="M0 0 C2.475 0.99 2.475 0.99 5 2 C5 2.66 5 3.32 5 4 C3.35 4.66 1.7 5.32 0 6 C0 4.02 0 2.04 0 0 Z " fill="#ADADB0" transform="translate(1045,366)"/>
<path d="M0 0 C0.94875 0.04125 1.8975 0.0825 2.875 0.125 C2.875 0.785 2.875 1.445 2.875 2.125 C0.565 2.455 -1.745 2.785 -4.125 3.125 C-4.455 4.445 -4.785 5.765 -5.125 7.125 C-5.25 4.75 -5.25 4.75 -5.125 2.125 C-3.125 0.125 -3.125 0.125 0 0 Z " fill="#CADCE8" transform="translate(982.125,362.875)"/>
<path d="M0 0 C0.66 0 1.32 0 2 0 C3.06546953 3.1964086 3.07427838 5.65747276 3 9 C2.01 8.67 1.02 8.34 0 8 C-1.125 2.25 -1.125 2.25 0 0 Z " fill="#9593A7" transform="translate(883,302)"/>
<path d="M0 0 C0.66 0 1.32 0 2 0 C3.06546953 3.1964086 3.07427838 5.65747276 3 9 C2.01 8.67 1.02 8.34 0 8 C-1.125 2.25 -1.125 2.25 0 0 Z " fill="#9593A7" transform="translate(1116,122)"/>
<path d="M0 0 C0.66 0 1.32 0 2 0 C3.06546953 3.1964086 3.07427838 5.65747276 3 9 C2.01 8.67 1.02 8.34 0 8 C-1.125 2.25 -1.125 2.25 0 0 Z " fill="#9593A7" transform="translate(1075,122)"/>
<path d="M0 0 C0.33 0 0.66 0 1 0 C1 2.97 1 5.94 1 9 C0.67 7.68 0.34 6.36 0 5 C-1.32 4.67 -2.64 4.34 -4 4 C-4 3.34 -4 2.68 -4 2 C-2.68 2 -1.36 2 0 2 C0 1.34 0 0.68 0 0 Z " fill="#D8ECF6" transform="translate(1073,435)"/>
<path d="M0 0 C1.32 0.33 2.64 0.66 4 1 C3.67 2.32 3.34 3.64 3 5 C2.01 5 1.02 5 0 5 C0 3.35 0 1.7 0 0 Z " fill="#EFE8E0" transform="translate(914,305)"/>
<path d="M0 0 C0.28875 0.639375 0.5775 1.27875 0.875 1.9375 C1.82823451 4.15206079 1.82823451 4.15206079 4 5 C4 5.66 4 6.32 4 7 C2.35 6.67 0.7 6.34 -1 6 C-1.042721 4.33388095 -1.04063832 2.66617115 -1 1 C-0.67 0.67 -0.34 0.34 0 0 Z " fill="#2F2828" transform="translate(984,101)"/>
<path d="M0 0 C0.66 0.33 1.32 0.66 2 1 C2 3.64 2 6.28 2 9 C1.34 9 0.68 9 0 9 C-0.87890625 2.84765625 -0.87890625 2.84765625 -1 1 C-0.67 0.67 -0.34 0.34 0 0 Z " fill="#212129" transform="translate(1020,99)"/>
<path d="M0 0 C2.31 0 4.62 0 7 0 C7 0.66 7 1.32 7 2 C2.25 3.125 2.25 3.125 0 2 C0 1.34 0 0.68 0 0 Z " fill="#848693" transform="translate(1030,495)"/>
<path d="M0 0 C1.65 0 3.3 0 5 0 C5 0.99 5 1.98 5 3 C3.35 3 1.7 3 0 3 C0 2.01 0 1.02 0 0 Z " fill="#9A9BA5" transform="translate(1053,489)"/>
<path d="M0 0 C1.32 0.33 2.64 0.66 4 1 C3.34 2.98 2.68 4.96 2 7 C1.34 7 0.68 7 0 7 C0 4.69 0 2.38 0 0 Z " fill="#9F9AA2" transform="translate(895,304)"/>
<path d="M0 0 C1.32 0.33 2.64 0.66 4 1 C3.34 2.98 2.68 4.96 2 7 C1.34 7 0.68 7 0 7 C0 4.69 0 2.38 0 0 Z " fill="#9B99AB" transform="translate(928,304)"/>
<path d="M0 0 C1.32 0.33 2.64 0.66 4 1 C3.34 2.98 2.68 4.96 2 7 C1.34 7 0.68 7 0 7 C0 4.69 0 2.38 0 0 Z " fill="#5C4955" transform="translate(917,272)"/>
<path d="M0 0 C2.0625 0.4375 2.0625 0.4375 4 1 C4 1.66 4 2.32 4 3 C3.01 3 2.02 3 1 3 C0.67 3.99 0.34 4.98 0 6 C-0.38218767 4.34385343 -0.71395102 2.67542976 -1 1 C-0.67 0.67 -0.34 0.34 0 0 Z " fill="#353648" transform="translate(1091,99)"/>
</svg>
