<svg viewBox="0 0 1600 1200" xml:space="preserve" xmlns="http://www.w3.org/2000/svg" enable-background="new 0 0 1600 1200"><path d="M420.5 1147.8h-.1l-151.3-19.6c-.3 0-.5-.2-.7-.4L194.1 1015c-.3-.4-.2-.9.1-1.3l68-68.4c.4-.4 1-.4 1.4 0 .4.4.4 1 0 1.4l-67.4 67.8 73.6 111.7 149.7 19.4c0-7.8-1.7-54.6-34.2-78.2-25.8-18.8-39.4-35.6-41.6-51.2-.1-.5.3-1.1.9-1.1.5-.1 1.1.3 1.1.9 2.1 15.1 15.4 31.4 40.8 49.9 36.2 26.3 35 80.4 35 81 0 .3-.1.5-.4.7-.1.1-.3.2-.6.2z" fill="#000000" class="fill-000000"></path><path d="M345.1 1021.3c-.3 0-.6-.1-.8-.4-.9-1.1-23.1-27.3-48.2-7.6-4 3.1-7.7 4.1-10.9 2.9-9.3-3.4-13.3-23.6-16.8-41.4-1.8-9-3.5-17.6-5.6-22.1-.2-.5 0-1.1.5-1.3.5-.2 1.1 0 1.3.5 2.2 4.7 3.9 13.4 5.7 22.5 3.3 16.4 7.3 36.9 15.5 39.9 2.6 1 5.6.1 9-2.6 26.7-20.9 50.8 7.6 51 7.9.4.4.3 1.1-.1 1.4-.1.2-.3.3-.6.3z" fill="#000000" class="fill-000000"></path><path d="M592.9 465.4c8.5 17.9 192.5 124.1 229.6 181.9 34.4 55.1 49.7 373.3 49.7 373.3l-118 11.6c-50.3-35.3-47-230.6-44.9-281.1.2-24.9-128.2-95.2-128.2-95.2s-5.9 89.9-19 125.4c-22.3 46.2-218 235.9-218 235.9L260.9 949c-19.4-50.9 167.9-215.8 167.9-215.8 11-14.5 14.5-90.4-1.9-154-16.5-63.6.8-82 .8-82s156.7-49.8 165.2-31.8z" fill="#445b61" class="fill-8197e5"></path><path d="M503.6 107.7c12.5 31.9-.7 42-.7 42l9.6 27.5s4.3 44.4 2 42.5c-10.7-9.1-57.6-32.9-57.6-32.9 2-6.9-3.9-47.3-3.9-47.3-11.1 5.3-20.2-1.9-20.4-13-.2-11.1 10.1-8.8 10.1-8.8l26.1-39.6 24.4 2.7s-2.1-5 10.4 26.9z" fill="#a97653" class="fill-a97653"></path><path d="M505.3 101c-1.8 5.8-27.7 17.9-39.9 23-12.2 5.1-13.5-3-23.4-5.2-9.9-2.2-28.8 10.6-28.8 10.6-2.6-.9-3.6-12.2-3.6-12.2 16-2.1 83.9-36.3 83.9-36.3 10.9 3.9 13.6 14.3 11.8 20.1z" fill="#feffff" class="fill-feffff"></path><path d="m784 224 10.8-5.2 8.5-8.6c12 2.6 25.5-11.6 27-14.3 1.5-2.7-3.1-9.5-3.1-9.5.8-3.3-2-9-2-9 1.3-6.3-3.6-8.7-3.6-8.7 0-5.3-3-8-3-8-4.8 1-14.3 6.3-21.6 11.6-6.2 4.5-10.8 9.2-10.8 9.2.9-1.7 3-7.6 2.9-9.9-.1-2.3 2.6-6.6 2.6-6.6 11.4-6.5 26.1-17.7 20.1-21-5.9-3.2-29.3 5.2-36.6 10.3-6.9 5.3-19.2 29.7-19.2 29.7l28 40zM779.6 347.6s29.6-8.9 38.4-11.5c8.8-2.5 6-13.7 6-13.7 3.8-3.5 1.9-11.5 1.9-11.5 1.6-6.2-3.6-11.1-3.6-11.1 2.5-5.1-3.2-8.9-3.2-8.9-7.6 1.9-26.4-.2-28-3-1.6-2.8.5-7.2 7.1-8 6.7-.8 22.9-9.6 19-13.2-4-3.6-26.5.7-36.5 5s-18.8 25.2-18.8 25.2c-.5 5.1 17.7 50.7 17.7 50.7z" fill="#a97653" class="fill-a97653"></path><path d="M378.7 325.9s-14.1 3.5-19.4-20.3 44.6-92.7 67.9-108.8c23.3-16.1 30.7-10.5 30.7-10.5 19.7 6.4 57 33.3 57 33.3l-2.5-40.4-1.2-5.5s5.2-1.2 10.1 3.5c4.9 4.6 1.7 13.8 1.7 13.8l1.2 1.9c12.2 15.2 25.9 53.5 25.9 53.5 11.4 24.6 31.2 158.9 31.2 158.9 13.6 32.9 8.1 59.6 8.1 59.6L425 497.5c-44.3-28.8-19.5-113.7-16.1-127.3 3.4-13.6-.4-61.3-.4-61.3-5.8 11.4-29.8 17-29.8 17z" fill="#cbacf9" class="fill-efb940"></path><path d="M574 402.9s8.3 4.8 21.1 8.3c12.8 3.5 97.3-27.5 133.1-38.4 35.8-10.9 52.3-23.7 52.3-23.7L763 297.3c-6.8-4.8-33.4-4.2-33.4-4.2 17.9-10.1 54.5-69.3 54.5-69.3l-28.6-40.3c-44.5.7-124.2 86.4-124.2 86.4-38.1-36.5-102.6-69.9-102.6-69.9L574 402.9z" fill="#cbacf9" class="fill-efb940"></path><path d="M1106.1 509.3H1236v145.9h-129.9V509.3z" fill="#445b61" class="fill-8197e5"></path><path d="M1467.1 164.2h1.4c3.3 0 6 2.7 6 6v239c0 3.3-2.7 6-6 6h-1.4c-3.3 0-6-2.7-6-6v-239c0-3.3 2.7-6 6-6zM1354.4 561.2c0-20.3 16.3-36.7 36.4-36.7 20.1 0 36.4 16.4 36.4 36.7 0 20.3-16.3 36.7-36.4 36.7-20.2 0-36.4-16.5-36.4-36.7z" fill="#cbacf9" class="fill-efb940"></path><path d="M1354.4 561.2c0-20.3 16.3-36.7 36.4-36.7 20.1 0 36.4 16.4 36.4 36.7 0 20.3-16.3 36.7-36.4 36.7-20.2 0-36.4-16.5-36.4-36.7z" fill="#cbacf9" class="fill-efb940"></path><path d="M1389.3 522.9c-14.8.6-28.5 10-34 24.8-7.3 19.7 2.7 41.6 22.4 48.9 19.7 7.3 41.6-2.7 48.9-22.4 7.3-19.7-2.7-41.6-22.4-49-4.9-1.7-9.9-2.5-14.9-2.3zm.1 2.3c4.7-.2 9.4.5 14.1 2.2 18.5 6.9 27.9 27.5 21 46.1-6.9 18.5-27.5 27.9-46 21-18.5-6.9-28-27.5-21.1-46 5.2-13.9 18.1-22.7 32-23.3z" fill="#2e2543" class="fill-2e2543"></path><path d="M1343.4 499.2c-1 .2-1.9.6-2.6 1.2-8 7.1 9.2 38.4 38 70.9 28.8 32.5 57.9 53.3 65.9 46.2 5.7-5.1-1-21.9-16.5-43.8-.4-.5-1.1-.6-1.6-.3-.5.4-.6 1.1-.2 1.6 14.6 20.8 21.1 37 16.8 40.8-6.4 5.7-34.9-14.8-62.7-46.1-27.7-31.3-44.6-62-38.2-67.7 4.1-3.6 20.2 5.6 39.3 22.6.5.4 1.2.4 1.6-.1.4-.5.4-1.2-.1-1.6-17.7-15.7-32.6-24.9-39.7-23.7z" fill="#2e2543" class="fill-2e2543"></path><path d="M915.4 144.7c-5.5 0-9.9-4.4-9.9-9.9s4.4-9.9 9.9-9.9 9.9 4.4 9.9 9.9c0 5.4-4.4 9.9-9.9 9.9zm0-17.8c-4.4 0-7.9 3.5-7.9 7.9s3.5 7.9 7.9 7.9 7.9-3.5 7.9-7.9-3.5-7.9-7.9-7.9zM1510.3 449.8c-5.2 0-9.5-4.3-9.5-9.5s4.3-9.5 9.5-9.5 9.5 4.3 9.5 9.5-4.3 9.5-9.5 9.5zm0-17c-4.1 0-7.5 3.4-7.5 7.5s3.4 7.5 7.5 7.5 7.5-3.4 7.5-7.5-3.4-7.5-7.5-7.5zM417.3 1129.7h-.2l-138.8-21.5c-.3 0-.5-.2-.7-.4l-71.7-102.1c-.3-.5-.2-1.1.2-1.4.5-.3 1.1-.2 1.4.2l71.4 101.7 138.4 21.4c.5.1.9.6.8 1.1.1.7-.4 1-.8 1zM353.4 1037.7c-.1 0-.1 0 0 0l-34.6-2.2c-.6 0-1-.5-.9-1.1s.5-1 1.1-.9l34.6 2.2c.6 0 1 .5.9 1.1-.2.5-.6.9-1.1.9zM360.3 1046l-38.5-1.6c-.6 0-1-.5-1-1 0-.6.5-1 1-1l38.5 1.5c.6 0 1 .5 1 1 0 .7-.5 1.1-1 1.1zM413.6 130.2h-.2c-.3-.1-.5-.2-.6-.5-.1-.3-3.3-6.2-3.5-11.6 0-.4.2-.8.6-1 0 0 36.6-14.6 42-16.8 5.2-2.1 33.6-16.9 39.5-20.2 3.4-1.9 9 2.3 12.2 7.4 3.4 5.4 4.6 12.9-2.3 17.8-9.8 7-34.1 19.5-46.5 19.5-2.6 0-4.7-.6-6-1.9-9.6-9.7-34.3 6.8-34.5 7-.3.3-.5.3-.7.3zm-2.3-11.5c.3 3.5 1.9 7.3 2.8 9 4.9-3.1 26.4-15.9 36.1-6.1 5.7 5.8 36.6-8.5 49.9-17.9 7.3-5.1 3.2-12.9 1.8-15.1-3.1-4.9-7.8-7.7-9.5-6.7-5 2.8-34.3 18.1-39.7 20.3-5 2-36.4 14.5-41.4 16.5z" fill="#000000" class="fill-000000"></path><path d="M447.5 131.2c-.3 0-.6-.1-.8-.4 0 0-3.8-4.5-8.1-6.6-.5-.2-.7-.8-.5-1.3.2-.5.8-.7 1.3-.5 4.7 2.3 8.6 6.9 8.8 7.1.4.4.3 1.1-.1 1.4-.2.2-.4.3-.6.3zM457.1 108c-.4 0-.7-.2-.9-.5-.3-.5-.1-1.1.4-1.3.3-.1 29-14.9 36.9-19.7.5-.3 1.1-.1 1.4.3.3.5.1 1.1-.3 1.4-7.9 4.8-36.7 19.6-37 19.7-.2.1-.3.1-.5.1zM451.4 123.3c2.5 1.4 21.7-4.1 36.2-10.9 10.7-5 17.6-12.1 17.6-12.1 9.5 17.6-53.8 32.3-55.5 28.7-1.7-3.5-7.3-9.4-7.3-9.4s4.7 1.4 9 3.7zM411.5 118.3c-.4 0-.7-.2-.9-.6-3.4-7.5-3.8-14.4-1.4-20.5 3.6-9.1 12.4-13.6 14.5-14.6.9-2.9 6.3-17 31.6-27.6 7.4-3.1 14.3-3.2 20.5-.2 13.3 6.3 18.8 24.2 19 24.9.2.5-.1 1.1-.7 1.2-.5.2-1.1-.1-1.2-.7-.1-.2-5.4-17.8-18-23.7-5.7-2.7-12-2.6-18.9.3-26.7 11.2-30.5 26.5-30.6 26.7-.1.3-.3.6-.6.7-.1 0-10.2 4.3-13.9 13.7-2.2 5.6-1.8 12 1.4 18.9.2.5 0 1.1-.5 1.3 0 .2-.2.2-.3.2z" fill="#000000" class="fill-000000"></path><path d="M452.8 101.8c-.2 0-.4-.1-.5-.2-.5-.3-.6-.9-.3-1.4l15.5-23.6c.2-.3.6-.5 1-.4.2 0 19.6 2.3 25.3 2.5.6 0 1 .5.9 1 0 .6-.5 1-1 .9-5.2-.3-21.4-2.1-24.8-2.5l-15.2 23.1c-.2.4-.6.6-.9.6zM485.7 133.7c-.1 0-.1 0 0 0-.6 0-1-.5-1-1 0-.6.5-1 1-1 .1 0 9.4 0 16.5-6.4.4-.4 1-.3 1.4.1.4.4.3 1-.1 1.4-7.5 6.8-17 6.9-17.8 6.9z" fill="#000000" class="fill-000000"></path><path d="M425.5 83.5c2.3-12.3 28.8-32.4 46.5-29.2 17.7 3.2 22 25.4 22 25.4l-26.7-2.4-13.6 24.1-42.4 15.6c-8.6-24.3 14.2-33.5 14.2-33.5zM416.3 128.4c10.7 10.7 23 11.4 23 11.4-9.9-8.1-5.1-19.5-5.1-19.5-2.9-.1-17.9 8.1-17.9 8.1zM502.9 149.2l5.8 17.3c-28.2 2.1-52.8-22.7-52.8-22.7 34.3 20 47 5.4 47 5.4zM596.5 411.6c-32.2 0-83.9-74.1-112.3-114.9-2.6-3.7-4.9-7-7-10-22.5-31.9-13.2-51.3-8.2-58.1 7.4-10 20.3-14.5 31.4-10.8 34.4 11.2 101.7 100.4 108 108.8 4.8-1 37.3-7.8 74.5-23.2 40.5-16.7 79.4-8.1 79.8-8 .4.1.7.4.8.8 2.1 13.2 16.8 52.1 16.9 52.4.1.2.1.5 0 .7-1 3-5.7 6.5-14.5 10.7-.5.2-1.1 0-1.3-.5-.2-.5 0-1.1.5-1.3 9.5-4.6 12.5-7.5 13.3-9.2-1.6-4.1-14.4-38.4-16.8-51.8-5.2-1-40.9-7.3-78 8-40.3 16.6-75.2 23.4-75.5 23.4-.4.1-.8-.1-1-.4-.7-1-72.7-97.3-107.4-108.6-10.3-3.4-22.3.8-29.2 10.1-4.8 6.5-13.6 24.9 8.2 55.8 2.1 3 4.5 6.4 7 10 27.5 39.4 84.7 121.4 114.9 113.5l.9-.2c7.1-1.9 17.8-4.7 30.9-8.2.5-.1 1.1.2 1.2.7.1.5-.2 1.1-.7 1.2-13.1 3.5-23.8 6.3-30.9 8.2l-.9.2c-1.4.5-3 .7-4.6.7z" fill="#000000" class="fill-000000"></path><path d="M409.1 308.6c-.2 0-.5-.1-.7-.3-.4-.4-.4-1 0-1.4 19.7-21 28.1-55.6 33.1-76.3 1.2-4.9 2.2-9.1 3.2-12.3 3-9.9 6.8-15.7 11.4-17.4 3.1-1.1 5.5.2 6 .5 18.9 7.4 43.5 14.6 43.7 14.6.5.2.8.7.7 1.2-.2.5-.7.8-1.2.7-.2-.1-25-7.3-44-14.7-.1 0-.1-.1-.2-.1s-1.9-1.2-4.4-.3c-2.7 1-6.7 4.6-10.1 16-.9 3.1-2 7.3-3.1 12.2-5 20.9-13.5 55.8-33.6 77.2-.3.3-.5.4-.8.4zM383 276.6h-.9c-5-.5-8-5.7-8.9-15.2-.1-.5.3-1 .9-1.1.5-.1 1 .3 1.1.9.9 8.5 3.3 13 7.2 13.4 15.9 1.7 52.1-58 56.4-71 5.6-16.9 17.1-14.5 17.2-14.5.5.1.9.7.8 1.2-.1.5-.7.9-1.2.8-.4-.1-9.9-1.9-14.9 13.2-3.8 11.2-39.2 72.3-57.7 72.3zM516 220.6c-.1 0-.2 0-.3-.1-.5-.2-.8-.7-.6-1.3.1-.3 10.5-31.1 6.7-39.5-3.6-7.9-10.8-5.6-11.1-5.5-.5.2-1.1-.1-1.3-.6-.2-.5.1-1.1.6-1.3.1 0 9.2-3 13.5 6.5 4.2 9.1-6.2 39.6-6.6 40.9-.1.6-.5.9-.9.9z" fill="#000000" class="fill-000000"></path><path d="M550.1 246.4c-.4 0-.8-.3-1-.7-6.1-21.6-25.8-52.1-26-52.4-.3-.5-.2-1.1.3-1.4.5-.3 1.1-.2 1.4.3.2.3 20 31.1 26.2 53 .2.5-.2 1.1-.7 1.2 0-.1-.1 0-.2 0zM588.5 351.5c-.2 0-.5-.1-.7-.3-.4-.4-.4-1 0-1.4l21.2-22.7c.4-.4 1-.4 1.4 0 .4.4.4 1 0 1.4l-21.2 22.7c-.2.2-.4.3-.7.3zM756.3 184c-.1 0-.3 0-.4-.1-.5-.2-.7-.8-.5-1.3.5-1.1 12.4-26.3 22.5-30.5.9-.4 2-.8 3.1-1.3 14.3-6.2 28.6-11.8 32.8-6.9.8.9 1 1.9.9 3.1-.9 5.4-12.5 12.7-21.1 17.7l-.3.2c-2.4 1.4-2.9 3.9-3.5 7.2-.5 2.8-1.1 6-3 9.3-.3.5-.9.6-1.4.4-.5-.3-.6-.9-.4-1.4 1.7-3 2.3-6 2.7-8.6.6-3.5 1.2-6.7 4.4-8.6l.3-.2c12.8-7.4 19.6-12.9 20.1-16.3.1-.6 0-1-.4-1.5-3.6-4.1-21.1 3.4-30.5 7.5-1.1.5-2.2.9-3.1 1.3-9.4 4-21.4 29.3-21.5 29.5 0 .3-.4.5-.7.5z" fill="#000000" class="fill-000000"></path><path d="M803.9 150.4c-.6 0-1.2-.1-1.8-.4-2.8-1.3-2.9-5.4-2.9-5.5 0-.6.4-1 1-1s1 .4 1 1c0 .8.3 3.1 1.7 3.7.9.4 3.3.4 8.4-4.1.4-.4 1-.3 1.4.1.4.4.3 1-.1 1.4-3.5 3.2-6.4 4.8-8.7 4.8z" fill="#000000" class="fill-000000"></path><path d="M810.6 164.8c-.4 0-.7-.2-.9-.6-.2-.5 0-1.1.5-1.3 14.6-6.9 30.1-15.4 30.9-17.4.7-3.4-1.6-12.9-3.8-13.4-1.8-.3-16.1 5.2-28.9 10.7-.5.2-1.1 0-1.3-.5-.2-.5 0-1.1.5-1.3 6.3-2.7 27.1-11.6 30.1-10.8 3.9 1 5.9 12.3 5.2 15.8-.7 3.6-22.6 14.4-32 18.8h-.3z" fill="#000000" class="fill-000000"></path><path d="M790.1 187.8c-.8 0-1.4-.1-1.9-.3-1.1-.5-1.8-1.4-2-2.6-1.6-8.9 20.8-20 23.4-21.2.5-.2 1.1 0 1.3.5.2.5 0 1.1-.5 1.3-11.7 5.7-23.2 14-22.3 19.1.1.7.5 1 .8 1.1 1.4.6 6.6.7 24.9-11.4 3.8-2.5 6-5.2 6.2-7.8.2-2.6-1.4-4.2-1.5-4.3-.4-.4-.4-1 0-1.4.4-.4 1-.4 1.4 0 .1.1 2.4 2.4 2.1 5.9-.3 3.2-2.7 6.4-7.1 9.3-12 7.8-20.4 11.8-24.8 11.8z" fill="#000000" class="fill-000000"></path><path d="M793.7 196.8c-2.9 0-4-1.2-4.4-2.2-.9-2.3.9-5.9 4.7-9.1.4-.4 1.1-.3 1.4.1.4.4.3 1.1-.1 1.4-3.3 2.8-4.6 5.6-4.1 6.8.4 1 2.1 1 3 1 10.1-.6 26.4-13.7 28.7-16.7 2.9-3.8-2.1-8.8-2.2-8.9-.4-.4-.4-1 0-1.4.4-.4 1-.4 1.4 0 .3.3 6.3 6.3 2.4 11.5-2.5 3.3-19.3 16.9-30.2 17.5h-.6z" fill="#000000" class="fill-000000"></path><path d="M799.1 204.1c-2.2 0-3.2-1-3.6-1.6-1.3-2 0-5.1 3-7.6.4-.4 1.1-.3 1.4.1.4.4.3 1.1-.1 1.4-2.4 2-3.2 4.1-2.6 5 .6 1 3.2 1.1 7.5-.9 5.9-2.7 18.2-8.4 21-13.6 2.2-4.2-1.9-8.6-2-8.6-.4-.4-.4-1 0-1.4.4-.4 1-.4 1.4 0 .2.2 5.2 5.5 2.3 11-2.8 5.1-12.2 10-21.9 14.5-2.9 1.3-4.9 1.7-6.4 1.7z" fill="#000000" class="fill-000000"></path><path d="M806.4 209.8c-3.1 0-4.9-.7-5.5-2.2-.7-1.7.4-3.9 3.5-6.9.4-.4 1-.4 1.4 0 .4.4.4 1 0 1.4-3.4 3.2-3.1 4.5-3 4.7.2.5 1.4 1.1 4.2 1 2.4-.1 16.8-5.2 21.3-10.6.9-1.1 1.3-2.3 1.1-3.6-.3-2.6-2.7-4.9-3.1-5.2-.4-.3-.6-.8-.4-1.3.2-.5.8-.7 1.3-.5.6.3 3.3 2.8 4 6 .5 2.1 0 4.2-1.4 5.9-5 6-20.1 11.2-22.8 11.3h-.6z" fill="#000000" class="fill-000000"></path><path d="M811.6 232.1c-.4 0-.8-.2-.9-.6l-9-22.4c-.2-.5 0-1.1.6-1.3.5-.2 1.1 0 1.3.6l8.7 21.5 18.9-7.4-7-20.2c-.2-.5.1-1.1.6-1.3.5-.2 1.1.1 1.3.6l7.3 21.1c.2.5-.1 1.1-.6 1.3l-20.8 8c-.2 0-.3.1-.4.1zM810.3 154.8c-.4 0-.7 0-1-.1-.5-.1-.9-.6-.8-1.1.1-.5.6-.9 1.1-.8 2.5.4 7.8-1.4 10.6-4.2 1.4-1.4 2.1-2.8 1.9-4.2-.2-1.6-.7-2.6-1.6-3.1-2.1-.9-5.8 1.1-7.1 2-.5.3-1.1.2-1.4-.2s-.2-1.1.2-1.4c.6-.4 5.6-3.8 9-2.2 1.6.7 2.5 2.3 2.8 4.6.2 2-.6 4-2.5 5.8-2.9 3.1-8 4.9-11.2 4.9z" fill="#000000" class="fill-000000"></path><path d="M784.4 224.9c-.4 0-.7-.2-.9-.6-.2-.5 0-1.1.5-1.3.1-.1 14.9-6.8 18.5-13.6.3-.5.9-.7 1.4-.4.5.3.7.9.4 1.4-3.9 7.4-18.8 14.2-19.5 14.5h-.4zM795.6 311.6c-.5 0-.9-.3-1-.8-.1-.5.3-1.1.8-1.2 21.9-4.2 26.2-9.3 26.8-12 .6-2.5-1.6-4.6-2.3-5.2-3 .3-20.5 1.6-26.7-1.4-3.5-1.7-3.7-4.1-3.4-5.4.5-3.2 4.4-6.2 8.5-6.7 4.8-.6 16.8-6.7 18.2-10.5.3-.7 0-1.1-.2-1.3-3.2-3.5-28 1.2-36.6 6-8.1 4.5-16.9 23.8-17 24-.2.5-.8.7-1.3.5-.5-.2-.7-.8-.5-1.3.4-.8 9.2-20.1 17.9-25 8.3-4.6 34.6-10.5 39-5.7.9.9 1.1 2.1.6 3.4-1.8 4.9-14.7 11.2-19.8 11.8-3.2.4-6.4 2.7-6.8 5-.2 1.3.6 2.4 2.4 3.3 6.1 3 25.8 1.2 26 1.2.2 0 .5 0 .7.2.2.1 4.3 3.2 3.4 7.5-1.3 5.7-10.8 10.2-28.4 13.6h-.3z" fill="#000000" class="fill-000000"></path><path d="M809 270.3c-1.3 0-2.5-.2-3.6-.7-2.8-1.2-3.6-3.4-3.6-3.5-.2-.5.1-1.1.6-1.3.5-.2 1.1.1 1.3.6 0 .1.6 1.6 2.5 2.4 2.4 1 6 .5 10.4-1.6.5-.2 1.1 0 1.3.5.2.5 0 1.1-.5 1.3-3.1 1.6-5.9 2.3-8.4 2.3zM797.9 322.5c-.5 0-.9-.3-1-.8-.1-.5.3-1.1.8-1.2 20.6-3.6 26.2-8.9 27.3-12.6 1.1-3.9-2.5-7.1-2.5-7.1-.4-.4-.5-1-.1-1.4.4-.4 1-.5 1.4-.1.2.2 4.5 4.1 3.1 9.2-1.8 6.3-11.5 11-28.9 14.1 0-.1-.1-.1-.1-.1z" fill="#000000" class="fill-000000"></path><path d="M800.4 330.7c-.5 0-.9-.4-1-.9-.1-.5.3-1 .9-1.1 17.7-1.9 23.3-6.6 24.9-10.3 1.9-4.3-1.1-8.4-1.1-8.4-.3-.4-.2-1.1.2-1.4.4-.3 1.1-.2 1.4.2.2.2 3.7 5.1 1.4 10.4-2.6 6-11.6 9.9-26.5 11.5h-.2z" fill="#000000" class="fill-000000"></path><path d="M778.8 348.4c-.5 0-.9-.3-1-.8-.1-.5.2-1.1.7-1.2.2-.1 22.2-5.3 35.7-9.9 4.4-1.5 7.2-3.7 8.5-6.5 1.5-3.5 0-6.7 0-6.7-.2-.5 0-1.1.5-1.3s1.1 0 1.3.5c.1.2 1.9 4.1.1 8.3-1.4 3.4-4.7 6-9.6 7.6-13.6 4.6-35.7 9.9-35.9 10-.1-.1-.2 0-.3 0zM818.4 291.7c-.5 0-.9-.4-1-.8-.1-.5.3-1.1.8-1.1l26.3-4.2c1.5-1.9 1.6-11.4 1.2-18.2l-29.7-1.1c-.6 0-1-.5-1-1 0-.6.5-1 1-1l30.6 1.1c.5 0 .9.4 1 .9.2 3 1.1 18.4-2 21-.1.1-.3.2-.5.2l-26.6 4.2h-.1z" fill="#000000" class="fill-000000"></path><path d="M801.5 376.2c-.5 0-.9-.3-1-.8L794 343c-.1-.5.2-1.1.8-1.2.5-.1 1.1.2 1.2.8l6.4 31.5 17.3-2.5-2.7-33.7c0-.6.4-1 .9-1.1.5 0 1 .4 1.1.9l2.8 34.6c0 .5-.3 1-.9 1.1l-19.2 2.8h-.2zM357.1 1004c-.3 0-.6-.1-.8-.4-8.8-11.4-89.5-75.5-90.3-76.1-.4-.3-.5-1-.2-1.4.3-.4 1-.5 1.4-.2 3.3 2.6 81.7 64.9 90.7 76.5.3.4.3 1.1-.2 1.4-.2.2-.4.2-.6.2zM740.7 1015.5c-.5 0-.9-.4-1-.9-.1-.5.3-1 .9-1.1 1.1-.1 112.5-13.2 129.8-14.2.5-.1 1 .4 1.1.9 0 .6-.4 1-.9 1.1-17.2.9-128.6 14-129.7 14.2h-.2zM582.5 655.3l-4.1 27.7c-69.1-47.5-96.2-96.3-96.2-96.3 44.1 39.7 100.3 68.6 100.3 68.6z" fill="#000000" class="fill-000000"></path><path d="M1018.4 182.6c0-11.1 9-20.1 20-20.1 11.1 0 20.1 9 20.1 20.1 0 11.1-9 20.1-20.1 20.1-11 0-20-9-20-20.1zM1002.3 246.3c0 5.1 18.6 4 37.3 4 18.1 0 36.3 1.2 36.3-3.5 0-19.6-17.9-36.8-37.3-36.8s-36.3 16.7-36.3 36.3z" fill="#445b61" class="fill-8197e5"></path><path d="M1164.2 337c-11.6 0-21.1-9.4-21.1-21.1 0-11.6 9.4-21.1 21.1-21.1 11.6 0 21 9.4 21 21.1.1 11.7-9.4 21.1-21 21.1zm0-40.1c-10.5 0-19.1 8.5-19.1 19.1s8.6 19.1 19.1 19.1c10.5 0 19-8.5 19-19.1s-8.5-19.1-19-19.1zM1148.9 384.8c-11.3 0-18.5-.5-20.9-2.9-.6-.6-1-1.4-1-2.2 0-19.9 17.4-37.3 37.3-37.3 20 0 38.3 18 38.3 37.8 0 .7-.3 1.4-.9 2-2.7 2.7-12 2.7-26.8 2.6-3.1 0-6.4-.1-9.6-.1-2.8 0-5.6 0-8.3.1-2.9-.1-5.6 0-8.1 0zm15.5-40.4c-18.8 0-35.3 16.5-35.3 35.3 0 .2 0 .5.4.8 2.6 2.6 15.3 2.4 27.6 2.3 2.7 0 5.6-.1 8.4-.1 3.2 0 6.5 0 9.6.1 11.4.1 23.2.2 25.4-2 .2-.2.3-.4.3-.5-.1-18.9-17.4-35.9-36.4-35.9z" fill="#000000" class="fill-000000"></path><path d="M1103.2 169.5h179.2c5.1 0 9.3 4.2 9.3 9.3 0 5.1-4.2 9.3-9.3 9.3h-179.2c-5.1 0-9.3-4.2-9.3-9.3 0-5.2 4.1-9.3 9.3-9.3z" fill="#cbacf9" class="fill-efb940"></path><path d="M1403.3 322.6h-179.2c-5.7 0-10.3-4.6-10.3-10.3 0-5.7 4.6-10.3 10.3-10.3h179.2c5.7 0 10.3 4.6 10.3 10.3 0 5.7-4.6 10.3-10.3 10.3zM1224.2 304c-4.6 0-8.3 3.7-8.3 8.3 0 4.6 3.7 8.3 8.3 8.3h179.2c4.6 0 8.3-3.7 8.3-8.3 0-4.6-3.7-8.3-8.3-8.3h-179.2zM1231 219h-128.1c-5.5 0-10-4.5-10-10s4.5-10 10-10H1231c5.5 0 10 4.5 10 10s-4.5 10-10 10zm-128.1-18c-4.4 0-8 3.6-8 8s3.6 8 8 8H1231c4.4 0 8-3.6 8-8s-3.6-8-8-8h-128.1z" fill="#000000" class="fill-000000"></path><path d="M1223.9 333.6H1352c5 0 9 4 9 9s-4 9-9 9h-128.1c-5 0-9-4-9-9s4-9 9-9z" fill="#2552c2" class="fill-2552c2"></path><path d="M1276 249.6h-173.1c-5.5 0-10-4.5-10-10s4.5-10 10-10H1276c5.5 0 10 4.5 10 10-.1 5.5-4.5 10-10 10zm-173.2-18c-4.4 0-8 3.6-8 8s3.6 8 8 8H1276c4.4 0 8-3.6 8-8s-3.6-8-8-8h-173.2z" fill="#000000" class="fill-000000"></path><path d="M1223.9 364.2H1397c5 0 9 4 9 9s-4 9-9 9h-173.1c-5 0-9-4-9-9s4-9 9-9z" fill="#445b61" class="fill-8197e5"></path><path d="M1480.2 490H977.5c-8.4 0-15.3-6.9-15.3-15.3V125.4c0-8.4 6.9-15.3 15.3-15.3h502.7c8.4 0 15.3 6.9 15.3 15.3v349.3c0 8.4-6.8 15.3-15.3 15.3zM977.5 112.1c-7.3 0-13.3 6-13.3 13.3v349.3c0 7.3 6 13.3 13.3 13.3h502.7c7.3 0 13.3-6 13.3-13.3V125.4c0-7.3-6-13.3-13.3-13.3H977.5z" fill="#000000" class="fill-000000"></path><path d="M1261.8 692.3H889.9c-8.4 0-15.3-6.9-15.3-15.3V423c0-8.4 6.9-15.3 15.3-15.3h371.9c8.4 0 15.3 6.9 15.3 15.3v254c0 8.4-6.9 15.3-15.3 15.3zM889.9 409.6c-7.3 0-13.3 6-13.3 13.3v254c0 7.3 6 13.3 13.3 13.3h371.9c7.3 0 13.3-6 13.3-13.3V423c0-7.3-6-13.3-13.3-13.3H889.9z" fill="#000000" class="fill-000000"></path><path d="M907.5 432.9h212.9c7.6 0 13.8 6.2 13.8 13.8 0 7.6-6.2 13.8-13.8 13.8H907.5c-7.6 0-13.8-6.2-13.8-13.8 0-7.7 6.2-13.8 13.8-13.8z" fill="#cbacf9" class="fill-efb940"></path><path d="M1161.8 462.1c-8.5 0-15.5-6.9-15.5-15.5s6.9-15.5 15.5-15.5c8.5 0 15.5 6.9 15.5 15.5s-6.9 15.5-15.5 15.5zm0-28.9c-7.4 0-13.5 6-13.5 13.5s6 13.5 13.5 13.5c7.4 0 13.5-6 13.5-13.5s-6-13.5-13.5-13.5z" fill="#000000" class="fill-000000"></path><path d="M1186.5 446.6c0-8 6.5-14.5 14.4-14.5 8 0 14.5 6.5 14.5 14.5s-6.5 14.5-14.5 14.5c-7.9 0-14.4-6.5-14.4-14.5z" fill="#445b61" class="fill-8197e5"></path><path d="M1225.2 446.6c0-8 6.5-14.5 14.5-14.5s14.5 6.5 14.5 14.5-6.5 14.5-14.5 14.5-14.5-6.5-14.5-14.5z" fill="#2552c2" class="fill-2552c2"></path><path d="M903.6 333.3c-.2-.1-.5-.1-.8.1l-5.8 3c-.5.3-.7.9-.4 1.3l6.4 12.6-12.6 6.4c-.5.2-.7.9-.4 1.3l2.9 5.9c.2.5.8.7 1.3.4l12.7-6.4 6.4 12.7c.3.5.9.7 1.3.4l5.8-3c.5-.3.7-.9.4-1.3l-6.4-12.6 12.6-6.4c.5-.2.7-.9.4-1.3-.4-.7-2.6-5.1-2.9-5.9-.2-.5-.8-.7-1.3-.4l-12.7 6.4-6.4-12.7c0-.2-.3-.4-.5-.5zm-.8 2.3 6.4 12.7c.3.5.9.7 1.3.4l12.7-6.4c.6 1.2 1.5 2.9 2.1 4.1l-12.6 6.4c-.5.2-.7.8-.4 1.3l6.4 12.6-4 2.1-6.4-12.7c-.3-.5-.9-.7-1.3-.4l-12.7 6.4-2.1-4.1 12.6-6.4c.5-.2.7-.9.4-1.3l-6.4-12.6 4-2.1zM1332.4 611.9c-.2-.1-.5-.1-.8.1l-5.8 3c-.5.3-.7.9-.4 1.3l6.4 12.6-12.6 6.4c-.5.2-.7.8-.4 1.3l2.9 5.9c.3.5.8.7 1.3.4l12.7-6.4 6.4 12.7c.3.5.8.7 1.3.4l5.8-3c.5-.3.7-.9.4-1.3l-6.4-12.6 12.6-6.4c.5-.2.7-.8.4-1.3-.4-.7-2.6-5.1-2.9-5.9-.3-.5-.8-.7-1.3-.4l-12.7 6.4-6.4-12.7c-.1-.2-.3-.4-.5-.5zm-.8 2.3 6.4 12.7c.3.5.8.7 1.3.4l12.7-6.4c.6 1.2 1.5 2.9 2.1 4.1l-12.6 6.4c-.5.3-.7.9-.4 1.3l6.4 12.6-4 2.1-6.4-12.7c-.3-.5-.8-.7-1.3-.4l-12.7 6.4-2.1-4.1 12.6-6.4c.5-.2.7-.8.4-1.3l-6.4-12.6 4-2.1z" fill="#000000" class="fill-000000"></path><path d="M1388.7 180.7c-.8-.7-2-.8-3.5-.3l-3.2 1.3c-1.9.8-5.2 1.1-7.2.7l-3.5-.7c-3-.6-4.8 1.6-3.6 4.4l1.3 3.3c.8 1.9 1.1 5.2.7 7.3l-.7 3.4c-.6 3 1.6 4.7 4.4 3.6l3.3-1.3c1.9-.8 5.2-1.1 7.3-.7l3.5.7c3 .6 4.8-1.6 3.6-4.4l-1.3-3.3c-.8-1.9-1.1-5.2-.7-7.2l.7-3.5c.1-1.4-.3-2.6-1.1-3.3zm-1.3 1.6c.3.2.4.7.2 1.4l-.6 3.4c-.5 2.4-.1 6.1.8 8.4l1.3 3.3c.6 1.4.1 1.9-1.4 1.7l-3.5-.7c-2.4-.5-6.1-.1-8.4.8l-3.3 1.3c-1.4.5-1.9.1-1.7-1.4l.7-3.5c.5-2.4.1-6.1-.8-8.4l-1.3-3.2c-.6-1.4-.1-1.9 1.4-1.7l3.4.6c2.4.5 6.1.1 8.4-.8l3.3-1.3c.8-.1 1.2-.2 1.5.1zM1065.9 333.8c-.8-.7-2.1-.8-3.5-.3l-3.3 1.3c-1.9.8-5.2 1.1-7.2.7l-3.5-.7c-3-.6-4.8 1.6-3.6 4.4l1.3 3.3c.8 1.9 1.1 5.2.7 7.3l-.7 3.4c-.6 3 1.6 4.7 4.4 3.6l3.3-1.3c1.9-.8 5.2-1.1 7.3-.7l3.5.7c3 .6 4.8-1.6 3.6-4.4l-1.3-3.3c-.8-1.9-1.1-5.2-.7-7.2l.7-3.5c.2-1.5-.2-2.7-1-3.3zm-1.3 1.5c.3.2.4.7.2 1.4l-.6 3.4c-.5 2.4-.1 6.1.8 8.4l1.3 3.3c.5 1.4.1 1.9-1.4 1.7l-3.5-.7c-2.4-.5-6.1-.1-8.3.8l-3.3 1.3c-1.4.5-1.9.1-1.7-1.4l.7-3.5c.5-2.4.1-6.1-.8-8.4l-1.3-3.2c-.5-1.4-.1-1.9 1.4-1.7l3.4.6c2.4.5 6.1.1 8.4-.8l3.3-1.3c.6-.1 1.1-.1 1.4.1z" fill="#2e2543" class="fill-2e2543"></path><path d="M710.1 747.7c-.2 0-.4-.1-.5-.2-.5-.3-.6-.9-.3-1.4l20.2-31.5c.3-.5.9-.6 1.4-.3.5.3.6.9.3 1.4L711 747.2c-.2.3-.5.5-.9.5z" fill="#000000" class="fill-000000"></path><path d="M809.2 1006.8c-.5 0-1-.4-1-1-.1-2.4-5.6-245.3-47.4-330.3-41-83.1-211.6-178.5-213.3-179.5-.5-.3-.7-.9-.4-1.4.3-.5.9-.7 1.4-.4.4.2 43.6 24.3 91.4 58.4 44.1 31.5 101.2 78.2 122.8 122 42.1 85.4 47.6 328.7 47.6 331.2-.1.6-.5 1-1.1 1z" fill="#000000" class="fill-000000"></path><path d="M608.5 534.1c-.5 0-.9-.4-1-.9-2.7-19.8-31.1-48.4-31.4-48.7-.4-.4-.4-1 0-1.4.4-.4 1-.4 1.4 0 1.2 1.2 29.2 29.4 31.9 49.8.1.5-.3 1.1-.9 1.1.1.1 0 .1 0 .1zM995 1148l-248-1.7c-.3 0-.5-.1-.7-.3-.2-.2-.3-.5-.3-.7l6.8-114.4c0-.6.5-1 1.1-.9.6 0 1 .5.9 1.1l-6.8 113.3 246.1 1.7c.4-3 1.2-13.7-3-25.8-4.5-13.1-15.9-30.5-44.9-39.4-43.2-13.3-67.5-48.4-75.9-62.9-.3-.5-.1-1.1.4-1.4.5-.3 1.1-.1 1.4.4 8.3 14.3 32.3 49 74.8 62 29.8 9.2 41.6 27.2 46.2 40.7 5 14.7 3 27 2.9 27.5-.1.4-.5.8-1 .8z" fill="#000000" class="fill-000000"></path><path d="m994.1 1133.9-246.2-4.7c-.6 0-1-.5-1-1 0-.6.5-1 1-1l246.2 4.7c.6 0 1 .5 1 1 0 .6-.4 1-1 1zM866.2 1051.4c-.5 0-1-.4-1-1s.4-1 1-1l28.9-.3c.5 0 1 .4 1 1s-.4 1-1 1l-28.9.3zM875.9 1060.6c-.5 0-1-.4-1-1s.4-1 1-1l28.7-.9c.6 0 1 .4 1 1s-.4 1-1 1l-28.7.9zM801.1 1060.9c-10.9 0-26.3-6.5-45.3-19.2l-.4-.3c-.5-.3-.6-.9-.3-1.4.3-.5.9-.6 1.4-.3l.4.3c21.7 14.5 39.2 21 49.3 18.2 3.9-1.1 6.7-3.4 8.5-7.2 15.7-32.6 58.9-25.1 59.3-25 .5.1.9.6.8 1.2-.1.5-.6.9-1.2.8-.4-.1-42.1-7.3-57.2 24-2.1 4.3-5.4 7.1-9.8 8.3-1.5.3-3.4.6-5.5.6zM620.8 290.6c-.2 0-.4 0-.5-.1-.5-.3-.6-.9-.3-1.4l11.8-19.3c.3-.5.9-.6 1.4-.3.5.3.6.9.3 1.4l-11.8 19.3c-.2.2-.5.4-.9.4zM1503.8 1148.3l-1398.5-1.8c-.6 0-1-.4-1-1s.4-1 1-1l1398.5 1.8c.6 0 1 .4 1 1s-.4 1-1 1zM1084.6 541.8H910.9c-.6 0-1-.4-1-1V513c0-.6.4-1 1-1h173.7c.6 0 1 .4 1 1v27.8c0 .5-.4 1-1 1zm-172.7-2h171.7V514H911.9v25.8z" fill="#000000" class="fill-000000"></path><path d="M491 449c-.3 0-.5-.1-.7-.3-.4-.4-.4-1 0-1.4l17.4-18c.4-.4 1-.4 1.4 0 .4.4.4 1 0 1.4l-17.4 18c-.2.2-.4.3-.7.3zM488.2 388.8c-.3 0-.6-.2-.8-.5l-7.9-12c-.3-.5-.2-1.1.3-1.4.5-.3 1.1-.2 1.4.3l7.9 12c.3.5.2 1.1-.3 1.4-.3.1-.5.2-.6.2zM538.3 326.5c-.5 0-.9-.4-1-.9l-1.9-16c-.1-.5.3-1 .9-1.1.5-.1 1 .3 1.1.9l1.9 16c.1.5-.3 1-.9 1.1h-.1zM652.3 369.2c-.4 0-.8-.2-.9-.6-.2-.5.1-1.1.6-1.3l14-5.3c.5-.2 1.1.1 1.3.6.2.5-.1 1.1-.6 1.3l-14 5.3h-.4zM607.1 380h-.2c-.5-.1-.9-.6-.8-1.2l3.3-18.3c.1-.5.6-.9 1.2-.8.5.1.9.6.8 1.2l-3.3 18.3c-.1.4-.6.8-1 .8zM703.1 329c-.5 0-1-.4-1-.9 0-.6.4-1 .9-1.1l16.1-1.2c.6 0 1 .4 1.1.9 0 .6-.4 1-.9 1.1l-16.2 1.2c.1 0 .1 0 0 0zM649.4 351.6h-.1c-.5-.1-.9-.6-.8-1.1l2.8-19c.1-.5.6-.9 1.1-.8.5.1.9.6.8 1.1l-2.8 19c0 .4-.5.8-1 .8zM650.4 289.6h-.2c-.5-.1-.9-.6-.8-1.1l2.3-15.2c.1-.5.6-.9 1.1-.8.5.1.9.6.8 1.1l-2.3 15.2c0 .4-.4.8-.9.8zM721.8 255.3c-.5 0-.9-.3-1-.8l-3.7-15.7c-.1-.5.2-1.1.7-1.2.5-.1 1.1.2 1.2.7l3.7 15.7c.1.5-.2 1.1-.7 1.2-.1 0-.2.1-.2.1zM753.8 229.3c-.5 0-1-.4-1-.9 0-.6.4-1 .9-1.1l14.7-.9c.6 0 1 .4 1.1.9 0 .6-.4 1-.9 1.1l-14.8.9zM669.6 257.5c-.4 0-.7-.2-.9-.5-.3-.5-.1-1.1.4-1.3l15-7.7c.5-.3 1.1-.1 1.3.4.3.5.1 1.1-.4 1.3l-15 7.7c-.1.1-.3.1-.4.1zM583 273.6c-.4 0-.7-.2-.9-.5l-7.9-14.3c-.3-.5-.1-1.1.4-1.4.5-.3 1.1-.1 1.4.4l7.9 14.3c.3.5.1 1.1-.4 1.4-.2.1-.4.1-.5.1zM608 263.6c-.4 0-.8-.3-.9-.7l-2.1-6c-.2-.5.1-1.1.6-1.3.5-.2 1.1.1 1.3.6l2.1 6c.2.5-.1 1.1-.6 1.3-.2 0-.3.1-.4.1zM449.4 330.7c-.3 0-.6-.1-.8-.4-.3-.4-.3-1.1.2-1.4l15.1-11.7c.4-.3 1.1-.3 1.4.2.3.4.3 1.1-.2 1.4L450 330.5c-.2.1-.4.2-.6.2zM501.8 277.7c-.1 0-.2 0-.4-.1-.5-.2-.8-.8-.6-1.3l5-12.7c.2-.5.8-.8 1.3-.6.5.2.8.8.6 1.3l-5 12.7c-.1.4-.5.7-.9.7zM480.5 240.8c-.4 0-.8-.2-.9-.6-.2-.5 0-1.1.5-1.3l21.8-9.5c.5-.2 1.1 0 1.3.5s0 1.1-.5 1.3l-21.8 9.5c-.1 0-.2.1-.4.1zM437.2 409.7c-.2 0-.5-.1-.7-.3L426 399.3c-.4-.4-.4-1 0-1.4.4-.4 1-.4 1.4 0l10.5 10.1c.4.4.4 1 0 1.4-.2.2-.5.3-.7.3zM431.8 492.1c-.4 0-.7-.2-.9-.5-.3-.5-.1-1.1.4-1.4l14.9-8.4c.5-.3 1.1-.1 1.4.4s.1 1.1-.4 1.4l-14.9 8.4c-.2 0-.3.1-.5.1zM412.8 326.7c-.1 0-.2 0-.3-.1-.5-.2-.8-.8-.6-1.3l7.1-19.7c.2-.5.8-.8 1.3-.6.5.2.8.8.6 1.3l-7.1 19.7c-.2.4-.6.7-1 .7zM567.1 454.3c-.2 0-.4-.1-.6-.2l-9.2-6.6c-.4-.3-.6-.9-.2-1.4s.9-.6 1.4-.2l9.2 6.6c.4.3.6.9.2 1.4-.2.3-.5.4-.8.4zM542.4 399.1c-.4 0-.8-.2-.9-.6-.2-.5 0-1.1.6-1.3l11.1-4.4c.5-.2 1.1 0 1.3.6.2.5 0 1.1-.6 1.3l-11.1 4.4h-.4zM741 347.8h-17.4c-.6 0-1-.4-1-1s.4-1 1-1H741c.6 0 1 .4 1 1s-.5 1-1 1z" fill="#feffff" class="fill-feffff"></path></svg>